<?xml version="1.0" encoding="UTF-8" standalone="no"?><!-- Generator: Gravit.io --><svg xmlns="http://www.w3.org/2000/svg" xmlns:xlink="http://www.w3.org/1999/xlink" style="isolation:isolate" viewBox="460 209 500 100" width="500pt" height="100pt"><g><rect x="460" y="209" width="100" height="100" transform="matrix(1,0,0,1,0,0)" fill="rgb(81,138,126)"/><rect x="560" y="209" width="100" height="100" transform="matrix(1,0,0,1,0,0)" fill="rgb(123,219,161)"/><rect x="660" y="209" width="100" height="100" transform="matrix(1,0,0,1,0,0)" fill="rgb(81,128,156)"/><rect x="760" y="209" width="100" height="100" transform="matrix(1,0,0,1,0,0)" fill="rgb(44,130,230)"/><rect x="860" y="209" width="100" height="100" transform="matrix(1,0,0,1,0,0)" fill="rgb(121,183,209)"/><path d=" M 589 257.59 L 587.668 257.59 L 587.368 259.99 L 589 259.99 L 588.88 260.89 L 587.266 260.89 L 586.966 263.29 L 585.76 263.41 L 586.084 260.89 L 584.446 260.89 L 584.158 263.29 L 582.958 263.41 L 583.264 260.89 L 582.1 260.89 L 582.1 259.99 L 583.366 259.99 L 583.672 257.59 L 582.1 257.59 L 582.22 256.69 L 583.774 256.69 L 583.918 255.58 L 583.918 254.29 L 585.274 254.17 L 584.956 256.69 L 586.594 256.69 L 586.882 254.29 L 588.088 254.17 L 587.782 256.69 L 589 256.69 L 589 257.59 L 589 257.59 Z  M 586.186 259.99 L 586.48 257.59 L 584.854 257.59 L 584.56 259.99 L 586.186 259.99 L 586.186 259.99 Z  M 590.362 255.25 L 590.362 254.29 L 596.02 254.29 L 596.02 255.07 L 596.02 255.07 Q 596.02 255.328 595.825 255.733 L 595.825 255.733 L 595.825 255.733 Q 595.63 256.138 595.33 256.642 L 595.33 256.642 L 595.33 256.642 Q 595.03 257.146 594.673 257.725 L 594.673 257.725 L 594.673 257.725 Q 594.316 258.304 593.995 258.913 L 593.995 258.913 L 593.995 258.913 Q 593.674 259.522 593.434 260.134 L 593.434 260.134 L 593.434 260.134 Q 593.194 260.746 593.128 261.316 L 593.128 261.316 L 593.128 261.316 Q 593.098 261.562 593.083 261.823 L 593.083 261.823 L 593.083 261.823 Q 593.068 262.084 593.059 262.342 L 593.059 262.342 L 593.059 262.342 Q 593.05 262.6 593.05 262.846 L 593.05 262.846 L 593.05 263.29 L 591.82 263.29 L 591.82 263.29 Q 591.82 263.11 591.823 262.807 L 591.823 262.807 L 591.823 262.807 Q 591.826 262.504 591.838 262.168 L 591.838 262.168 L 591.838 262.168 Q 591.85 261.832 591.88 261.502 L 591.88 261.502 L 591.88 261.502 Q 591.91 261.172 591.958 260.938 L 591.958 260.938 L 591.958 260.938 Q 592.096 260.296 592.351 259.675 L 592.351 259.675 L 592.351 259.675 Q 592.606 259.054 592.909 258.481 L 592.909 258.481 L 592.909 258.481 Q 593.212 257.908 593.53 257.398 L 593.53 257.398 L 593.53 257.398 Q 593.848 256.888 594.106 256.471 L 594.106 256.471 L 594.106 256.471 Q 594.364 256.054 594.529 255.742 L 594.529 255.742 L 594.529 255.742 Q 594.694 255.43 594.694 255.25 L 594.694 255.25 L 590.362 255.25 L 590.362 255.25 Z  M 600.58 263.29 L 598.36 263.29 L 598.36 255.55 L 598.18 254.35 L 598.18 254.35 Q 598.54 254.302 598.921 254.266 L 598.921 254.266 L 598.921 254.266 Q 599.302 254.23 599.692 254.23 L 599.692 254.23 L 599.692 254.23 Q 600.388 254.23 601.018 254.317 L 601.018 254.317 L 601.018 254.317 Q 601.648 254.404 602.125 254.632 L 602.125 254.632 L 602.125 254.632 Q 602.602 254.86 602.884 255.259 L 602.884 255.259 L 602.884 255.259 Q 603.166 255.658 603.166 256.276 L 603.166 256.276 L 603.166 256.276 Q 603.166 256.93 602.884 257.404 L 602.884 257.404 L 602.884 257.404 Q 602.602 257.878 602.08 258.13 L 602.08 258.13 L 601.156 258.394 L 602.038 258.478 L 602.038 258.478 Q 602.404 258.586 602.728 258.757 L 602.728 258.757 L 602.728 258.757 Q 603.052 258.928 603.289 259.174 L 603.289 259.174 L 603.289 259.174 Q 603.526 259.42 603.664 259.756 L 603.664 259.756 L 603.664 259.756 Q 603.802 260.092 603.802 260.53 L 603.802 260.53 L 603.802 260.53 Q 603.802 261.04 603.667 261.442 L 603.667 261.442 L 603.667 261.442 Q 603.532 261.844 603.298 262.15 L 603.298 262.15 L 603.298 262.15 Q 603.064 262.456 602.752 262.675 L 602.752 262.675 L 602.752 262.675 Q 602.44 262.894 602.083 263.029 L 602.083 263.029 L 602.083 263.029 Q 601.726 263.164 601.342 263.227 L 601.342 263.227 L 601.342 263.227 Q 600.958 263.29 600.58 263.29 L 600.58 263.29 L 600.58 263.29 Z  M 599.47 258.91 L 599.47 262.33 L 600.13 262.33 L 600.13 262.33 Q 600.724 262.33 601.189 262.243 L 601.189 262.243 L 601.189 262.243 Q 601.654 262.156 601.975 261.955 L 601.975 261.955 L 601.975 261.955 Q 602.296 261.754 602.464 261.421 L 602.464 261.421 L 602.464 261.421 Q 602.632 261.088 602.632 260.59 L 602.632 260.59 L 602.632 260.59 Q 602.632 260.14 602.476 259.822 L 602.476 259.822 L 602.476 259.822 Q 602.32 259.504 602.035 259.3 L 602.035 259.3 L 602.035 259.3 Q 601.75 259.096 601.348 259.003 L 601.348 259.003 L 601.348 259.003 Q 600.946 258.91 600.46 258.91 L 600.46 258.91 L 599.47 258.91 L 599.47 258.91 Z  M 599.254 255.13 L 599.47 256.408 L 599.47 257.98 L 600.1 257.98 L 600.1 257.98 Q 600.466 257.962 600.823 257.866 L 600.823 257.866 L 600.823 257.866 Q 601.18 257.77 601.459 257.581 L 601.459 257.581 L 601.459 257.581 Q 601.738 257.392 601.909 257.101 L 601.909 257.101 L 601.909 257.101 Q 602.08 256.81 602.08 256.402 L 602.08 256.402 L 602.08 256.402 Q 602.08 256.006 601.897 255.745 L 601.897 255.745 L 601.897 255.745 Q 601.714 255.484 601.426 255.334 L 601.426 255.334 L 601.426 255.334 Q 601.138 255.184 600.781 255.124 L 600.781 255.124 L 600.781 255.124 Q 600.424 255.064 600.082 255.064 L 600.082 255.064 L 600.082 255.064 Q 599.878 255.064 599.659 255.079 L 599.659 255.079 L 599.659 255.079 Q 599.44 255.094 599.254 255.13 L 599.254 255.13 L 599.254 255.13 Z  M 606.13 255.55 L 605.95 254.29 L 605.95 254.29 Q 606.136 254.272 606.376 254.26 L 606.376 254.26 L 606.376 254.26 Q 606.616 254.248 606.868 254.239 L 606.868 254.239 L 606.868 254.239 Q 607.12 254.23 607.366 254.227 L 607.366 254.227 L 607.366 254.227 Q 607.612 254.224 607.81 254.224 L 607.81 254.224 L 607.81 254.224 Q 608.764 254.224 609.577 254.458 L 609.577 254.458 L 609.577 254.458 Q 610.39 254.692 610.984 255.202 L 610.984 255.202 L 610.984 255.202 Q 611.578 255.712 611.914 256.51 L 611.914 256.51 L 611.914 256.51 Q 612.25 257.308 612.25 258.43 L 612.25 258.43 L 612.25 258.43 Q 612.25 259.306 612.082 260.005 L 612.082 260.005 L 612.082 260.005 Q 611.914 260.704 611.617 261.244 L 611.617 261.244 L 611.617 261.244 Q 611.32 261.784 610.903 262.171 L 610.903 262.171 L 610.903 262.171 Q 610.486 262.558 609.985 262.807 L 609.985 262.807 L 609.985 262.807 Q 609.484 263.056 608.92 263.173 L 608.92 263.173 L 608.92 263.173 Q 608.356 263.29 607.756 263.29 L 607.756 263.29 L 606.13 263.29 L 606.13 255.55 L 606.13 255.55 Z  M 607.12 255.19 L 607.27 256.39 L 607.27 262.33 L 607.39 262.33 L 607.39 262.33 Q 608.164 262.33 608.734 262.15 L 608.734 262.15 L 608.734 262.15 Q 609.304 261.97 609.703 261.673 L 609.703 261.673 L 609.703 261.673 Q 610.102 261.376 610.354 260.989 L 610.354 260.989 L 610.354 260.989 Q 610.606 260.602 610.747 260.188 L 610.747 260.188 L 610.747 260.188 Q 610.888 259.774 610.939 259.366 L 610.939 259.366 L 610.939 259.366 Q 610.99 258.958 610.99 258.61 L 610.99 258.61 L 610.99 258.61 Q 610.99 258.1 610.942 257.644 L 610.942 257.644 L 610.942 257.644 Q 610.894 257.188 610.762 256.804 L 610.762 256.804 L 610.762 256.804 Q 610.63 256.42 610.402 256.114 L 610.402 256.114 L 610.402 256.114 Q 610.174 255.808 609.814 255.592 L 609.814 255.592 L 609.814 255.592 Q 609.454 255.376 608.947 255.259 L 608.947 255.259 L 608.947 255.259 Q 608.44 255.142 607.756 255.142 L 607.756 255.142 L 607.756 255.142 Q 607.66 255.142 607.552 255.148 L 607.552 255.148 L 607.552 255.148 Q 607.444 255.154 607.348 255.166 L 607.348 255.166 L 607.12 255.19 L 607.12 255.19 Z  M 616.18 263.29 L 613.96 263.29 L 613.96 255.55 L 613.78 254.35 L 613.78 254.35 Q 614.14 254.302 614.521 254.266 L 614.521 254.266 L 614.521 254.266 Q 614.902 254.23 615.292 254.23 L 615.292 254.23 L 615.292 254.23 Q 615.988 254.23 616.618 254.317 L 616.618 254.317 L 616.618 254.317 Q 617.248 254.404 617.725 254.632 L 617.725 254.632 L 617.725 254.632 Q 618.202 254.86 618.484 255.259 L 618.484 255.259 L 618.484 255.259 Q 618.766 255.658 618.766 256.276 L 618.766 256.276 L 618.766 256.276 Q 618.766 256.93 618.484 257.404 L 618.484 257.404 L 618.484 257.404 Q 618.202 257.878 617.68 258.13 L 617.68 258.13 L 616.756 258.394 L 617.638 258.478 L 617.638 258.478 Q 618.004 258.586 618.328 258.757 L 618.328 258.757 L 618.328 258.757 Q 618.652 258.928 618.889 259.174 L 618.889 259.174 L 618.889 259.174 Q 619.126 259.42 619.264 259.756 L 619.264 259.756 L 619.264 259.756 Q 619.402 260.092 619.402 260.53 L 619.402 260.53 L 619.402 260.53 Q 619.402 261.04 619.267 261.442 L 619.267 261.442 L 619.267 261.442 Q 619.132 261.844 618.898 262.15 L 618.898 262.15 L 618.898 262.15 Q 618.664 262.456 618.352 262.675 L 618.352 262.675 L 618.352 262.675 Q 618.04 262.894 617.683 263.029 L 617.683 263.029 L 617.683 263.029 Q 617.326 263.164 616.942 263.227 L 616.942 263.227 L 616.942 263.227 Q 616.558 263.29 616.18 263.29 L 616.18 263.29 L 616.18 263.29 Z  M 615.07 258.91 L 615.07 262.33 L 615.73 262.33 L 615.73 262.33 Q 616.324 262.33 616.789 262.243 L 616.789 262.243 L 616.789 262.243 Q 617.254 262.156 617.575 261.955 L 617.575 261.955 L 617.575 261.955 Q 617.896 261.754 618.064 261.421 L 618.064 261.421 L 618.064 261.421 Q 618.232 261.088 618.232 260.59 L 618.232 260.59 L 618.232 260.59 Q 618.232 260.14 618.076 259.822 L 618.076 259.822 L 618.076 259.822 Q 617.92 259.504 617.635 259.3 L 617.635 259.3 L 617.635 259.3 Q 617.35 259.096 616.948 259.003 L 616.948 259.003 L 616.948 259.003 Q 616.546 258.91 616.06 258.91 L 616.06 258.91 L 615.07 258.91 L 615.07 258.91 Z  M 614.854 255.13 L 615.07 256.408 L 615.07 257.98 L 615.7 257.98 L 615.7 257.98 Q 616.066 257.962 616.423 257.866 L 616.423 257.866 L 616.423 257.866 Q 616.78 257.77 617.059 257.581 L 617.059 257.581 L 617.059 257.581 Q 617.338 257.392 617.509 257.101 L 617.509 257.101 L 617.509 257.101 Q 617.68 256.81 617.68 256.402 L 617.68 256.402 L 617.68 256.402 Q 617.68 256.006 617.497 255.745 L 617.497 255.745 L 617.497 255.745 Q 617.314 255.484 617.026 255.334 L 617.026 255.334 L 617.026 255.334 Q 616.738 255.184 616.381 255.124 L 616.381 255.124 L 616.381 255.124 Q 616.024 255.064 615.682 255.064 L 615.682 255.064 L 615.682 255.064 Q 615.478 255.064 615.259 255.079 L 615.259 255.079 L 615.259 255.079 Q 615.04 255.094 614.854 255.13 L 614.854 255.13 L 614.854 255.13 Z  M 621.799 263.29 L 620.695 263.29 L 623.527 255.49 L 623.737 254.29 L 624.805 254.17 L 628.093 263.29 L 626.893 263.29 L 626.005 260.59 L 622.795 260.59 L 621.799 263.29 L 621.799 263.29 Z  M 624.643 256.81 L 624.373 254.89 L 624.103 256.81 L 623.089 259.69 L 625.711 259.69 L 624.643 256.81 L 624.643 256.81 Z  M 635.128 263.29 L 629.728 263.29 L 629.728 262.33 L 631.798 262.33 L 631.798 256.534 L 632.146 255.172 L 631.33 256.288 L 630.058 257.416 L 629.41 256.69 L 632.158 254.17 L 633.058 254.29 L 633.058 262.33 L 635.128 262.33 L 635.128 263.29 L 635.128 263.29 Z " fill="rgb(34,34,34)"/><path d=" M 689 257.59 L 687.668 257.59 L 687.368 259.99 L 689 259.99 L 688.88 260.89 L 687.266 260.89 L 686.966 263.29 L 685.76 263.41 L 686.084 260.89 L 684.446 260.89 L 684.158 263.29 L 682.958 263.41 L 683.264 260.89 L 682.1 260.89 L 682.1 259.99 L 683.366 259.99 L 683.672 257.59 L 682.1 257.59 L 682.22 256.69 L 683.774 256.69 L 683.918 255.58 L 683.918 254.29 L 685.274 254.17 L 684.956 256.69 L 686.594 256.69 L 686.882 254.29 L 688.088 254.17 L 687.782 256.69 L 689 256.69 L 689 257.59 L 689 257.59 Z  M 686.186 259.99 L 686.48 257.59 L 684.854 257.59 L 684.56 259.99 L 686.186 259.99 L 686.186 259.99 Z  M 692.036 255.25 L 692.036 257.398 L 692.036 257.398 Q 692.078 257.374 692.183 257.32 L 692.183 257.32 L 692.183 257.32 Q 692.288 257.266 692.444 257.212 L 692.444 257.212 L 692.444 257.212 Q 692.6 257.158 692.801 257.119 L 692.801 257.119 L 692.801 257.119 Q 693.002 257.08 693.248 257.08 L 693.248 257.08 L 693.248 257.08 Q 693.872 257.08 694.361 257.275 L 694.361 257.275 L 694.361 257.275 Q 694.85 257.47 695.189 257.809 L 695.189 257.809 L 695.189 257.809 Q 695.528 258.148 695.705 258.604 L 695.705 258.604 L 695.705 258.604 Q 695.882 259.06 695.882 259.576 L 695.882 259.576 L 695.882 259.576 Q 695.882 260.182 695.666 260.695 L 695.666 260.695 L 695.666 260.695 Q 695.45 261.208 695.075 261.619 L 695.075 261.619 L 695.075 261.619 Q 694.7 262.03 694.199 262.342 L 694.199 262.342 L 694.199 262.342 Q 693.698 262.654 693.131 262.867 L 693.131 262.867 L 693.131 262.867 Q 692.564 263.08 691.964 263.185 L 691.964 263.185 L 691.964 263.185 Q 691.364 263.29 690.788 263.29 L 690.788 263.29 L 690.788 262.33 L 690.788 262.33 Q 691.238 262.318 691.7 262.222 L 691.7 262.222 L 691.7 262.222 Q 692.162 262.126 692.591 261.958 L 692.591 261.958 L 692.591 261.958 Q 693.02 261.79 693.395 261.556 L 693.395 261.556 L 693.395 261.556 Q 693.77 261.322 694.049 261.034 L 694.049 261.034 L 694.049 261.034 Q 694.328 260.746 694.49 260.41 L 694.49 260.41 L 694.49 260.41 Q 694.652 260.074 694.652 259.702 L 694.652 259.702 L 694.652 259.702 Q 694.652 259.396 694.553 259.108 L 694.553 259.108 L 694.553 259.108 Q 694.454 258.82 694.259 258.595 L 694.259 258.595 L 694.259 258.595 Q 694.064 258.37 693.77 258.232 L 693.77 258.232 L 693.77 258.232 Q 693.476 258.094 693.086 258.094 L 693.086 258.094 L 693.086 258.094 Q 692.78 258.094 692.534 258.133 L 692.534 258.133 L 692.534 258.133 Q 692.288 258.172 692.096 258.232 L 692.096 258.232 L 692.096 258.232 Q 691.904 258.292 691.763 258.361 L 691.763 258.361 L 691.763 258.361 Q 691.622 258.43 691.532 258.49 L 691.532 258.49 L 690.788 258.49 L 690.788 254.29 L 695.306 254.29 L 695.306 255.25 L 692.036 255.25 L 692.036 255.25 Z  M 703.928 263.29 L 698.528 263.29 L 698.528 262.33 L 700.598 262.33 L 700.598 256.534 L 700.946 255.172 L 700.13 256.288 L 698.858 257.416 L 698.21 256.69 L 700.958 254.17 L 701.858 254.29 L 701.858 262.33 L 703.928 262.33 L 703.928 263.29 L 703.928 263.29 Z  M 708.687 254.188 L 708.687 254.188 L 708.687 254.188 Q 709.234 254.188 709.702 254.338 L 709.702 254.338 L 709.702 254.338 Q 710.17 254.488 710.51 254.77 L 710.51 254.77 L 710.51 254.77 Q 710.849 255.052 711.041 255.454 L 711.041 255.454 L 711.041 255.454 Q 711.233 255.856 711.233 256.36 L 711.233 256.36 L 711.233 256.36 Q 711.233 256.714 711.128 256.99 L 711.128 256.99 L 711.128 256.99 Q 711.023 257.266 710.843 257.485 L 710.843 257.485 L 710.843 257.485 Q 710.664 257.704 710.427 257.881 L 710.427 257.881 L 710.427 257.881 Q 710.19 258.058 709.926 258.214 L 709.926 258.214 L 709.926 258.214 Q 710.371 258.412 710.722 258.667 L 710.722 258.667 L 710.722 258.667 Q 711.073 258.922 711.317 259.243 L 711.317 259.243 L 711.317 259.243 Q 711.56 259.564 711.689 259.96 L 711.689 259.96 L 711.689 259.96 Q 711.818 260.356 711.818 260.83 L 711.818 260.83 L 711.818 260.83 Q 711.818 261.496 711.554 261.979 L 711.554 261.979 L 711.554 261.979 Q 711.289 262.462 710.854 262.777 L 710.854 262.777 L 710.854 262.777 Q 710.419 263.092 709.863 263.242 L 709.863 263.242 L 709.863 263.242 Q 709.307 263.392 708.725 263.392 L 708.725 263.392 L 708.725 263.392 Q 708.154 263.392 707.626 263.221 L 707.626 263.221 L 707.626 263.221 Q 707.097 263.05 706.692 262.717 L 706.692 262.717 L 706.692 262.717 Q 706.286 262.384 706.04 261.889 L 706.04 261.889 L 706.04 261.889 Q 705.794 261.394 705.794 260.746 L 705.794 260.746 L 705.794 260.746 Q 705.794 260.266 705.932 259.876 L 705.932 259.876 L 705.932 259.876 Q 706.07 259.486 706.311 259.174 L 706.311 259.174 L 706.311 259.174 Q 706.551 258.862 706.881 258.619 L 706.881 258.619 L 706.881 258.619 Q 707.211 258.376 707.596 258.19 L 707.596 258.19 L 707.596 258.19 Q 707.313 258.016 707.07 257.83 L 707.07 257.83 L 707.07 257.83 Q 706.827 257.644 706.644 257.431 L 706.644 257.431 L 706.644 257.431 Q 706.46 257.218 706.355 256.972 L 706.355 256.972 L 706.355 256.972 Q 706.25 256.726 706.25 256.426 L 706.25 256.426 L 706.25 256.426 Q 706.25 255.844 706.481 255.421 L 706.481 255.421 L 706.481 255.421 Q 706.712 254.998 707.073 254.725 L 707.073 254.725 L 707.073 254.725 Q 707.433 254.452 707.862 254.32 L 707.862 254.32 L 707.862 254.32 Q 708.291 254.188 708.687 254.188 Z  M 708.62 258.73 L 708.62 258.73 L 708.62 258.73 Q 708.242 258.892 707.939 259.087 L 707.939 259.087 L 707.939 259.087 Q 707.636 259.282 707.423 259.531 L 707.423 259.531 L 707.423 259.531 Q 707.21 259.78 707.093 260.095 L 707.093 260.095 L 707.093 260.095 Q 706.976 260.41 706.976 260.806 L 706.976 260.806 L 706.976 260.806 Q 706.976 261.166 707.123 261.46 L 707.123 261.46 L 707.123 261.46 Q 707.27 261.754 707.513 261.967 L 707.513 261.967 L 707.513 261.967 Q 707.756 262.18 708.074 262.294 L 708.074 262.294 L 708.074 262.294 Q 708.392 262.408 708.728 262.408 L 708.728 262.408 L 708.728 262.408 Q 709.112 262.408 709.457 262.303 L 709.457 262.303 L 709.457 262.303 Q 709.802 262.198 710.063 261.994 L 710.063 261.994 L 710.063 261.994 Q 710.324 261.79 710.474 261.49 L 710.474 261.49 L 710.474 261.49 Q 710.624 261.19 710.624 260.8 L 710.624 260.8 L 710.624 260.8 Q 710.624 260.398 710.447 260.083 L 710.447 260.083 L 710.447 260.083 Q 710.27 259.768 709.985 259.519 L 709.985 259.519 L 709.985 259.519 Q 709.7 259.27 709.343 259.078 L 709.343 259.078 L 709.343 259.078 Q 708.986 258.886 708.62 258.73 Z  M 708.868 257.752 L 708.868 257.752 L 708.868 257.752 Q 709.42 257.506 709.748 257.158 L 709.748 257.158 L 709.748 257.158 Q 710.075 256.81 710.075 256.312 L 710.075 256.312 L 710.075 256.312 Q 710.075 256.012 709.952 255.796 L 709.952 255.796 L 709.952 255.796 Q 709.829 255.58 709.643 255.442 L 709.643 255.442 L 709.643 255.442 Q 709.456 255.304 709.231 255.241 L 709.231 255.241 L 709.231 255.241 Q 709.006 255.178 708.802 255.178 L 708.802 255.178 L 708.802 255.178 Q 708.531 255.178 708.279 255.259 L 708.279 255.259 L 708.279 255.259 Q 708.027 255.34 707.834 255.49 L 707.834 255.49 L 707.834 255.49 Q 707.642 255.64 707.525 255.844 L 707.525 255.844 L 707.525 255.844 Q 707.408 256.048 707.408 256.288 L 707.408 256.288 L 707.408 256.288 Q 707.408 256.564 707.525 256.777 L 707.525 256.777 L 707.525 256.777 Q 707.642 256.99 707.843 257.161 L 707.843 257.161 L 707.843 257.161 Q 708.045 257.332 708.309 257.476 L 708.309 257.476 L 708.309 257.476 Q 708.573 257.62 708.868 257.752 Z  M 716.609 263.392 L 716.609 263.392 L 716.609 263.392 Q 716.099 263.392 715.672 263.197 L 715.672 263.197 L 715.672 263.197 Q 715.246 263.002 714.906 262.666 L 714.906 262.666 L 714.906 262.666 Q 714.567 262.33 714.312 261.88 L 714.312 261.88 L 714.312 261.88 Q 714.057 261.43 713.885 260.917 L 713.885 260.917 L 713.885 260.917 Q 713.714 260.404 713.63 259.858 L 713.63 259.858 L 713.63 259.858 Q 713.546 259.312 713.546 258.79 L 713.546 258.79 L 713.546 258.79 Q 713.546 258.25 713.618 257.698 L 713.618 257.698 L 713.618 257.698 Q 713.69 257.146 713.846 256.636 L 713.846 256.636 L 713.846 256.636 Q 714.002 256.126 714.246 255.679 L 714.246 255.679 L 714.246 255.679 Q 714.489 255.232 714.828 254.902 L 714.828 254.902 L 714.828 254.902 Q 715.168 254.572 715.609 254.38 L 715.609 254.38 L 715.609 254.38 Q 716.05 254.188 716.609 254.188 L 716.609 254.188 L 716.609 254.188 Q 717.12 254.188 717.546 254.383 L 717.546 254.383 L 717.546 254.383 Q 717.972 254.578 718.312 254.914 L 718.312 254.914 L 718.312 254.914 Q 718.651 255.25 718.906 255.7 L 718.906 255.7 L 718.906 255.7 Q 719.162 256.15 719.333 256.663 L 719.333 256.663 L 719.333 256.663 Q 719.504 257.176 719.588 257.722 L 719.588 257.722 L 719.588 257.722 Q 719.672 258.268 719.672 258.79 L 719.672 258.79 L 719.672 258.79 Q 719.672 259.33 719.6 259.882 L 719.6 259.882 L 719.6 259.882 Q 719.528 260.434 719.372 260.944 L 719.372 260.944 L 719.372 260.944 Q 719.216 261.454 718.972 261.901 L 718.972 261.901 L 718.972 261.901 Q 718.729 262.348 718.39 262.678 L 718.39 262.678 L 718.39 262.678 Q 718.05 263.008 717.606 263.2 L 717.606 263.2 L 717.606 263.2 Q 717.162 263.392 716.609 263.392 Z  M 714.794 258.532 L 714.794 258.532 L 714.794 258.532 Q 714.794 258.88 714.818 259.297 L 714.818 259.297 L 714.818 259.297 Q 714.842 259.714 714.914 260.137 L 714.914 260.137 L 714.914 260.137 Q 714.986 260.56 715.114 260.956 L 715.114 260.956 L 715.114 260.956 Q 715.243 261.352 715.45 261.661 L 715.45 261.661 L 715.45 261.661 Q 715.657 261.97 715.953 262.156 L 715.953 262.156 L 715.953 262.156 Q 716.25 262.342 716.657 262.342 L 716.657 262.342 L 716.657 262.342 Q 717.022 262.342 717.295 262.201 L 717.295 262.201 L 717.295 262.201 Q 717.567 262.06 717.765 261.817 L 717.765 261.817 L 717.765 261.817 Q 717.963 261.574 718.089 261.253 L 718.089 261.253 L 718.089 261.253 Q 718.214 260.932 718.289 260.566 L 718.289 260.566 L 718.289 260.566 Q 718.364 260.2 718.394 259.81 L 718.394 259.81 L 718.394 259.81 Q 718.424 259.42 718.424 259.048 L 718.424 259.048 L 718.424 259.048 Q 718.424 258.7 718.4 258.283 L 718.4 258.283 L 718.4 258.283 Q 718.376 257.866 718.304 257.446 L 718.304 257.446 L 718.304 257.446 Q 718.232 257.026 718.104 256.627 L 718.104 256.627 L 718.104 256.627 Q 717.975 256.228 717.768 255.922 L 717.768 255.922 L 717.768 255.922 Q 717.561 255.616 717.265 255.43 L 717.265 255.43 L 717.265 255.43 Q 716.968 255.244 716.561 255.244 L 716.561 255.244 L 716.561 255.244 Q 716.196 255.244 715.923 255.385 L 715.923 255.385 L 715.923 255.385 Q 715.651 255.526 715.453 255.766 L 715.453 255.766 L 715.453 255.766 Q 715.255 256.006 715.129 256.33 L 715.129 256.33 L 715.129 256.33 Q 715.004 256.654 714.929 257.02 L 714.929 257.02 L 714.929 257.02 Q 714.854 257.386 714.824 257.773 L 714.824 257.773 L 714.824 257.773 Q 714.794 258.16 714.794 258.532 Z  M 726.194 258.61 L 725.714 259.312 L 725.714 259.312 Q 725.36 259.588 725.003 259.72 L 725.003 259.72 L 725.003 259.72 Q 724.646 259.852 724.196 259.852 L 724.196 259.852 L 724.196 259.852 Q 723.608 259.852 723.098 259.657 L 723.098 259.657 L 723.098 259.657 Q 722.588 259.462 722.21 259.102 L 722.21 259.102 L 722.21 259.102 Q 721.832 258.742 721.616 258.235 L 721.616 258.235 L 721.616 258.235 Q 721.4 257.728 721.4 257.104 L 721.4 257.104 L 721.4 257.104 Q 721.4 256.456 721.607 255.922 L 721.607 255.922 L 721.607 255.922 Q 721.814 255.388 722.195 255.001 L 722.195 255.001 L 722.195 255.001 Q 722.576 254.614 723.119 254.401 L 723.119 254.401 L 723.119 254.401 Q 723.662 254.188 724.334 254.188 L 724.334 254.188 L 724.334 254.188 Q 724.934 254.188 725.393 254.374 L 725.393 254.374 L 725.393 254.374 Q 725.852 254.56 726.188 254.866 L 726.188 254.866 L 726.188 254.866 Q 726.524 255.172 726.749 255.568 L 726.749 255.568 L 726.749 255.568 Q 726.974 255.964 727.109 256.39 L 727.109 256.39 L 727.109 256.39 Q 727.244 256.816 727.301 257.236 L 727.301 257.236 L 727.301 257.236 Q 727.358 257.656 727.358 258.01 L 727.358 258.01 L 727.358 258.01 Q 727.358 258.706 727.217 259.369 L 727.217 259.369 L 727.217 259.369 Q 727.076 260.032 726.803 260.62 L 726.803 260.62 L 726.803 260.62 Q 726.53 261.208 726.134 261.703 L 726.134 261.703 L 726.134 261.703 Q 725.738 262.198 725.231 262.564 L 725.231 262.564 L 725.231 262.564 Q 724.724 262.93 724.112 263.146 L 724.112 263.146 L 724.112 263.146 Q 723.5 263.362 722.792 263.392 L 722.792 263.392 L 722.606 262.39 L 722.606 262.39 Q 723.326 262.354 723.959 262.048 L 723.959 262.048 L 723.959 262.048 Q 724.592 261.742 725.075 261.235 L 725.075 261.235 L 725.075 261.235 Q 725.558 260.728 725.855 260.053 L 725.855 260.053 L 725.855 260.053 Q 726.152 259.378 726.194 258.61 L 726.194 258.61 L 726.194 258.61 Z  M 726.122 257.572 L 726.122 257.572 L 726.122 257.572 Q 726.104 257.122 725.993 256.699 L 725.993 256.699 L 725.993 256.699 Q 725.882 256.276 725.666 255.943 L 725.666 255.943 L 725.666 255.943 Q 725.45 255.61 725.132 255.409 L 725.132 255.409 L 725.132 255.409 Q 724.814 255.208 724.382 255.208 L 724.382 255.208 L 724.382 255.208 Q 723.974 255.208 723.65 255.34 L 723.65 255.34 L 723.65 255.34 Q 723.326 255.472 723.098 255.706 L 723.098 255.706 L 723.098 255.706 Q 722.87 255.94 722.747 256.27 L 722.747 256.27 L 722.747 256.27 Q 722.624 256.6 722.624 256.996 L 722.624 256.996 L 722.624 256.996 Q 722.624 257.386 722.723 257.722 L 722.723 257.722 L 722.723 257.722 Q 722.822 258.058 723.023 258.304 L 723.023 258.304 L 723.023 258.304 Q 723.224 258.55 723.533 258.691 L 723.533 258.691 L 723.533 258.691 Q 723.842 258.832 724.256 258.832 L 724.256 258.832 L 724.256 258.832 Q 724.574 258.832 724.865 258.73 L 724.865 258.73 L 724.865 258.73 Q 725.156 258.628 725.399 258.457 L 725.399 258.457 L 725.399 258.457 Q 725.642 258.286 725.828 258.058 L 725.828 258.058 L 725.828 258.058 Q 726.014 257.83 726.122 257.572 Z  M 734.72 261.905 L 735.182 262.662 L 735.182 262.662 Q 734.936 262.861 734.684 263 L 734.684 263 L 734.684 263 Q 734.432 263.139 734.156 263.226 L 734.156 263.226 L 734.156 263.226 Q 733.88 263.314 733.574 263.353 L 733.574 263.353 L 733.574 263.353 Q 733.268 263.392 732.914 263.392 L 732.914 263.392 L 732.914 263.392 Q 732.338 263.392 731.816 263.221 L 731.816 263.221 L 731.816 263.221 Q 731.294 263.05 730.847 262.741 L 730.847 262.741 L 730.847 262.741 Q 730.4 262.432 730.04 262 L 730.04 262 L 730.04 262 Q 729.68 261.568 729.428 261.043 L 729.428 261.043 L 729.428 261.043 Q 729.176 260.518 729.038 259.918 L 729.038 259.918 L 729.038 259.918 Q 728.9 259.318 728.9 258.67 L 728.9 258.67 L 728.9 258.67 Q 728.9 257.764 729.158 256.951 L 729.158 256.951 L 729.158 256.951 Q 729.416 256.138 729.926 255.523 L 729.926 255.523 L 729.926 255.523 Q 730.436 254.908 731.189 254.548 L 731.189 254.548 L 731.189 254.548 Q 731.942 254.188 732.932 254.188 L 732.932 254.188 L 732.932 254.188 Q 733.622 254.188 734.177 254.407 L 734.177 254.407 L 734.177 254.407 Q 734.732 254.626 735.164 255.04 L 735.164 255.04 L 734.624 255.682 L 734.624 255.682 Q 734.48 255.586 734.318 255.499 L 734.318 255.499 L 734.318 255.499 Q 734.156 255.412 733.961 255.346 L 733.961 255.346 L 733.961 255.346 Q 733.766 255.28 733.535 255.241 L 733.535 255.241 L 733.535 255.241 Q 733.304 255.202 733.028 255.202 L 733.028 255.202 L 733.028 255.202 Q 732.296 255.202 731.753 255.478 L 731.753 255.478 L 731.753 255.478 Q 731.21 255.754 730.85 256.224 L 730.85 256.224 L 730.85 256.224 Q 730.49 256.695 730.313 257.321 L 730.313 257.321 L 730.313 257.321 Q 730.136 257.948 730.136 258.649 L 730.136 258.649 L 730.136 258.649 Q 730.136 259.087 730.226 259.53 L 730.226 259.53 L 730.226 259.53 Q 730.316 259.974 730.487 260.388 L 730.487 260.388 L 730.487 260.388 Q 730.658 260.801 730.91 261.161 L 730.91 261.161 L 730.91 261.161 Q 731.162 261.521 731.489 261.79 L 731.489 261.79 L 731.489 261.79 Q 731.816 262.06 732.212 262.213 L 732.212 262.213 L 732.212 262.213 Q 732.608 262.366 733.07 262.366 L 733.07 262.366 L 733.07 262.366 Q 733.34 262.366 733.544 262.342 L 733.544 262.342 L 733.544 262.342 Q 733.748 262.318 733.931 262.264 L 733.931 262.264 L 733.931 262.264 Q 734.114 262.211 734.3 262.124 L 734.3 262.124 L 734.3 262.124 Q 734.486 262.037 734.72 261.905 L 734.72 261.905 L 734.72 261.905 Z " fill="rgb(255,255,255)"/><path d=" M 789 257.59 L 787.668 257.59 L 787.368 259.99 L 789 259.99 L 788.88 260.89 L 787.266 260.89 L 786.966 263.29 L 785.76 263.41 L 786.084 260.89 L 784.446 260.89 L 784.158 263.29 L 782.958 263.41 L 783.264 260.89 L 782.1 260.89 L 782.1 259.99 L 783.366 259.99 L 783.672 257.59 L 782.1 257.59 L 782.22 256.69 L 783.774 256.69 L 783.918 255.58 L 783.918 254.29 L 785.274 254.17 L 784.956 256.69 L 786.594 256.69 L 786.882 254.29 L 788.088 254.17 L 787.782 256.69 L 789 256.69 L 789 257.59 L 789 257.59 Z  M 786.186 259.99 L 786.48 257.59 L 784.854 257.59 L 784.56 259.99 L 786.186 259.99 L 786.186 259.99 Z  M 796.002 263.29 L 790.398 263.29 L 790.398 262.282 L 790.398 262.282 Q 790.674 261.844 790.998 261.418 L 790.998 261.418 L 790.998 261.418 Q 791.322 260.992 791.655 260.593 L 791.655 260.593 L 791.655 260.593 Q 791.988 260.194 792.306 259.831 L 792.306 259.831 L 792.306 259.831 Q 792.624 259.468 792.894 259.162 L 792.894 259.162 L 792.894 259.162 Q 793.206 258.802 793.497 258.499 L 793.497 258.499 L 793.497 258.499 Q 793.788 258.196 794.01 257.902 L 794.01 257.902 L 794.01 257.902 Q 794.232 257.608 794.364 257.293 L 794.364 257.293 L 794.364 257.293 Q 794.496 256.978 794.496 256.6 L 794.496 256.6 L 794.496 256.6 Q 794.496 256.312 794.388 256.057 L 794.388 256.057 L 794.388 256.057 Q 794.28 255.802 794.085 255.613 L 794.085 255.613 L 794.085 255.613 Q 793.89 255.424 793.62 255.313 L 793.62 255.313 L 793.62 255.313 Q 793.35 255.202 793.026 255.202 L 793.026 255.202 L 793.026 255.202 Q 792.66 255.202 792.393 255.301 L 792.393 255.301 L 792.393 255.301 Q 792.126 255.4 791.925 255.562 L 791.925 255.562 L 791.925 255.562 Q 791.724 255.724 791.577 255.925 L 791.577 255.925 L 791.577 255.925 Q 791.43 256.126 791.304 256.33 L 791.304 256.33 L 790.458 255.97 L 790.458 255.97 Q 790.614 255.58 790.857 255.253 L 790.857 255.253 L 790.857 255.253 Q 791.1 254.926 791.43 254.689 L 791.43 254.689 L 791.43 254.689 Q 791.76 254.452 792.18 254.32 L 792.18 254.32 L 792.18 254.32 Q 792.6 254.188 793.116 254.188 L 793.116 254.188 L 793.116 254.188 Q 793.722 254.188 794.196 254.404 L 794.196 254.404 L 794.196 254.404 Q 794.67 254.62 794.997 254.971 L 794.997 254.971 L 794.997 254.971 Q 795.324 255.322 795.495 255.766 L 795.495 255.766 L 795.495 255.766 Q 795.666 256.21 795.666 256.666 L 795.666 256.666 L 795.666 256.666 Q 795.666 257.128 795.495 257.545 L 795.495 257.545 L 795.495 257.545 Q 795.324 257.962 795.069 258.337 L 795.069 258.337 L 795.069 258.337 Q 794.814 258.712 794.52 259.042 L 794.52 259.042 L 794.52 259.042 Q 794.226 259.372 793.98 259.66 L 793.98 259.66 L 793.98 259.66 Q 793.668 260.026 793.356 260.38 L 793.356 260.38 L 793.356 260.38 Q 793.044 260.734 792.759 261.073 L 792.759 261.073 L 792.759 261.073 Q 792.474 261.412 792.228 261.727 L 792.228 261.727 L 792.228 261.727 Q 791.982 262.042 791.802 262.33 L 791.802 262.33 L 796.002 262.33 L 796.002 263.29 L 796.002 263.29 Z  M 803.52 261.905 L 803.982 262.662 L 803.982 262.662 Q 803.736 262.861 803.484 263 L 803.484 263 L 803.484 263 Q 803.232 263.139 802.956 263.226 L 802.956 263.226 L 802.956 263.226 Q 802.68 263.314 802.374 263.353 L 802.374 263.353 L 802.374 263.353 Q 802.068 263.392 801.714 263.392 L 801.714 263.392 L 801.714 263.392 Q 801.138 263.392 800.616 263.221 L 800.616 263.221 L 800.616 263.221 Q 800.094 263.05 799.647 262.741 L 799.647 262.741 L 799.647 262.741 Q 799.2 262.432 798.84 262 L 798.84 262 L 798.84 262 Q 798.48 261.568 798.228 261.043 L 798.228 261.043 L 798.228 261.043 Q 797.976 260.518 797.838 259.918 L 797.838 259.918 L 797.838 259.918 Q 797.7 259.318 797.7 258.67 L 797.7 258.67 L 797.7 258.67 Q 797.7 257.764 797.958 256.951 L 797.958 256.951 L 797.958 256.951 Q 798.216 256.138 798.726 255.523 L 798.726 255.523 L 798.726 255.523 Q 799.236 254.908 799.989 254.548 L 799.989 254.548 L 799.989 254.548 Q 800.742 254.188 801.732 254.188 L 801.732 254.188 L 801.732 254.188 Q 802.422 254.188 802.977 254.407 L 802.977 254.407 L 802.977 254.407 Q 803.532 254.626 803.964 255.04 L 803.964 255.04 L 803.424 255.682 L 803.424 255.682 Q 803.28 255.586 803.118 255.499 L 803.118 255.499 L 803.118 255.499 Q 802.956 255.412 802.761 255.346 L 802.761 255.346 L 802.761 255.346 Q 802.566 255.28 802.335 255.241 L 802.335 255.241 L 802.335 255.241 Q 802.104 255.202 801.828 255.202 L 801.828 255.202 L 801.828 255.202 Q 801.096 255.202 800.553 255.478 L 800.553 255.478 L 800.553 255.478 Q 800.01 255.754 799.65 256.224 L 799.65 256.224 L 799.65 256.224 Q 799.29 256.695 799.113 257.321 L 799.113 257.321 L 799.113 257.321 Q 798.936 257.948 798.936 258.649 L 798.936 258.649 L 798.936 258.649 Q 798.936 259.087 799.026 259.53 L 799.026 259.53 L 799.026 259.53 Q 799.116 259.974 799.287 260.388 L 799.287 260.388 L 799.287 260.388 Q 799.458 260.801 799.71 261.161 L 799.71 261.161 L 799.71 261.161 Q 799.962 261.521 800.289 261.79 L 800.289 261.79 L 800.289 261.79 Q 800.616 262.06 801.012 262.213 L 801.012 262.213 L 801.012 262.213 Q 801.408 262.366 801.87 262.366 L 801.87 262.366 L 801.87 262.366 Q 802.14 262.366 802.344 262.342 L 802.344 262.342 L 802.344 262.342 Q 802.548 262.318 802.731 262.264 L 802.731 262.264 L 802.731 262.264 Q 802.914 262.211 803.1 262.124 L 803.1 262.124 L 803.1 262.124 Q 803.286 262.037 803.52 261.905 L 803.52 261.905 L 803.52 261.905 Z  M 808.687 254.188 L 808.687 254.188 L 808.687 254.188 Q 809.234 254.188 809.702 254.338 L 809.702 254.338 L 809.702 254.338 Q 810.17 254.488 810.51 254.77 L 810.51 254.77 L 810.51 254.77 Q 810.849 255.052 811.041 255.454 L 811.041 255.454 L 811.041 255.454 Q 811.233 255.856 811.233 256.36 L 811.233 256.36 L 811.233 256.36 Q 811.233 256.714 811.128 256.99 L 811.128 256.99 L 811.128 256.99 Q 811.023 257.266 810.843 257.485 L 810.843 257.485 L 810.843 257.485 Q 810.664 257.704 810.427 257.881 L 810.427 257.881 L 810.427 257.881 Q 810.19 258.058 809.926 258.214 L 809.926 258.214 L 809.926 258.214 Q 810.371 258.412 810.722 258.667 L 810.722 258.667 L 810.722 258.667 Q 811.073 258.922 811.317 259.243 L 811.317 259.243 L 811.317 259.243 Q 811.56 259.564 811.689 259.96 L 811.689 259.96 L 811.689 259.96 Q 811.818 260.356 811.818 260.83 L 811.818 260.83 L 811.818 260.83 Q 811.818 261.496 811.554 261.979 L 811.554 261.979 L 811.554 261.979 Q 811.289 262.462 810.854 262.777 L 810.854 262.777 L 810.854 262.777 Q 810.419 263.092 809.863 263.242 L 809.863 263.242 L 809.863 263.242 Q 809.307 263.392 808.725 263.392 L 808.725 263.392 L 808.725 263.392 Q 808.154 263.392 807.626 263.221 L 807.626 263.221 L 807.626 263.221 Q 807.097 263.05 806.692 262.717 L 806.692 262.717 L 806.692 262.717 Q 806.286 262.384 806.04 261.889 L 806.04 261.889 L 806.04 261.889 Q 805.794 261.394 805.794 260.746 L 805.794 260.746 L 805.794 260.746 Q 805.794 260.266 805.932 259.876 L 805.932 259.876 L 805.932 259.876 Q 806.07 259.486 806.311 259.174 L 806.311 259.174 L 806.311 259.174 Q 806.551 258.862 806.881 258.619 L 806.881 258.619 L 806.881 258.619 Q 807.211 258.376 807.596 258.19 L 807.596 258.19 L 807.596 258.19 Q 807.313 258.016 807.07 257.83 L 807.07 257.83 L 807.07 257.83 Q 806.827 257.644 806.644 257.431 L 806.644 257.431 L 806.644 257.431 Q 806.46 257.218 806.355 256.972 L 806.355 256.972 L 806.355 256.972 Q 806.25 256.726 806.25 256.426 L 806.25 256.426 L 806.25 256.426 Q 806.25 255.844 806.481 255.421 L 806.481 255.421 L 806.481 255.421 Q 806.712 254.998 807.073 254.725 L 807.073 254.725 L 807.073 254.725 Q 807.433 254.452 807.862 254.32 L 807.862 254.32 L 807.862 254.32 Q 808.291 254.188 808.687 254.188 Z  M 808.62 258.73 L 808.62 258.73 L 808.62 258.73 Q 808.242 258.892 807.939 259.087 L 807.939 259.087 L 807.939 259.087 Q 807.636 259.282 807.423 259.531 L 807.423 259.531 L 807.423 259.531 Q 807.21 259.78 807.093 260.095 L 807.093 260.095 L 807.093 260.095 Q 806.976 260.41 806.976 260.806 L 806.976 260.806 L 806.976 260.806 Q 806.976 261.166 807.123 261.46 L 807.123 261.46 L 807.123 261.46 Q 807.27 261.754 807.513 261.967 L 807.513 261.967 L 807.513 261.967 Q 807.756 262.18 808.074 262.294 L 808.074 262.294 L 808.074 262.294 Q 808.392 262.408 808.728 262.408 L 808.728 262.408 L 808.728 262.408 Q 809.112 262.408 809.457 262.303 L 809.457 262.303 L 809.457 262.303 Q 809.802 262.198 810.063 261.994 L 810.063 261.994 L 810.063 261.994 Q 810.324 261.79 810.474 261.49 L 810.474 261.49 L 810.474 261.49 Q 810.624 261.19 810.624 260.8 L 810.624 260.8 L 810.624 260.8 Q 810.624 260.398 810.447 260.083 L 810.447 260.083 L 810.447 260.083 Q 810.27 259.768 809.985 259.519 L 809.985 259.519 L 809.985 259.519 Q 809.7 259.27 809.343 259.078 L 809.343 259.078 L 809.343 259.078 Q 808.986 258.886 808.62 258.73 Z  M 808.868 257.752 L 808.868 257.752 L 808.868 257.752 Q 809.42 257.506 809.748 257.158 L 809.748 257.158 L 809.748 257.158 Q 810.075 256.81 810.075 256.312 L 810.075 256.312 L 810.075 256.312 Q 810.075 256.012 809.952 255.796 L 809.952 255.796 L 809.952 255.796 Q 809.829 255.58 809.643 255.442 L 809.643 255.442 L 809.643 255.442 Q 809.456 255.304 809.231 255.241 L 809.231 255.241 L 809.231 255.241 Q 809.006 255.178 808.802 255.178 L 808.802 255.178 L 808.802 255.178 Q 808.531 255.178 808.279 255.259 L 808.279 255.259 L 808.279 255.259 Q 808.027 255.34 807.834 255.49 L 807.834 255.49 L 807.834 255.49 Q 807.642 255.64 807.525 255.844 L 807.525 255.844 L 807.525 255.844 Q 807.408 256.048 807.408 256.288 L 807.408 256.288 L 807.408 256.288 Q 807.408 256.564 807.525 256.777 L 807.525 256.777 L 807.525 256.777 Q 807.642 256.99 807.843 257.161 L 807.843 257.161 L 807.843 257.161 Q 808.045 257.332 808.309 257.476 L 808.309 257.476 L 808.309 257.476 Q 808.573 257.62 808.868 257.752 Z  M 819.402 263.29 L 813.798 263.29 L 813.798 262.282 L 813.798 262.282 Q 814.074 261.844 814.398 261.418 L 814.398 261.418 L 814.398 261.418 Q 814.722 260.992 815.055 260.593 L 815.055 260.593 L 815.055 260.593 Q 815.388 260.194 815.706 259.831 L 815.706 259.831 L 815.706 259.831 Q 816.024 259.468 816.294 259.162 L 816.294 259.162 L 816.294 259.162 Q 816.606 258.802 816.897 258.499 L 816.897 258.499 L 816.897 258.499 Q 817.188 258.196 817.41 257.902 L 817.41 257.902 L 817.41 257.902 Q 817.632 257.608 817.764 257.293 L 817.764 257.293 L 817.764 257.293 Q 817.896 256.978 817.896 256.6 L 817.896 256.6 L 817.896 256.6 Q 817.896 256.312 817.788 256.057 L 817.788 256.057 L 817.788 256.057 Q 817.68 255.802 817.485 255.613 L 817.485 255.613 L 817.485 255.613 Q 817.29 255.424 817.02 255.313 L 817.02 255.313 L 817.02 255.313 Q 816.75 255.202 816.426 255.202 L 816.426 255.202 L 816.426 255.202 Q 816.06 255.202 815.793 255.301 L 815.793 255.301 L 815.793 255.301 Q 815.526 255.4 815.325 255.562 L 815.325 255.562 L 815.325 255.562 Q 815.124 255.724 814.977 255.925 L 814.977 255.925 L 814.977 255.925 Q 814.83 256.126 814.704 256.33 L 814.704 256.33 L 813.858 255.97 L 813.858 255.97 Q 814.014 255.58 814.257 255.253 L 814.257 255.253 L 814.257 255.253 Q 814.5 254.926 814.83 254.689 L 814.83 254.689 L 814.83 254.689 Q 815.16 254.452 815.58 254.32 L 815.58 254.32 L 815.58 254.32 Q 816 254.188 816.516 254.188 L 816.516 254.188 L 816.516 254.188 Q 817.122 254.188 817.596 254.404 L 817.596 254.404 L 817.596 254.404 Q 818.07 254.62 818.397 254.971 L 818.397 254.971 L 818.397 254.971 Q 818.724 255.322 818.895 255.766 L 818.895 255.766 L 818.895 255.766 Q 819.066 256.21 819.066 256.666 L 819.066 256.666 L 819.066 256.666 Q 819.066 257.128 818.895 257.545 L 818.895 257.545 L 818.895 257.545 Q 818.724 257.962 818.469 258.337 L 818.469 258.337 L 818.469 258.337 Q 818.214 258.712 817.92 259.042 L 817.92 259.042 L 817.92 259.042 Q 817.626 259.372 817.38 259.66 L 817.38 259.66 L 817.38 259.66 Q 817.068 260.026 816.756 260.38 L 816.756 260.38 L 816.756 260.38 Q 816.444 260.734 816.159 261.073 L 816.159 261.073 L 816.159 261.073 Q 815.874 261.412 815.628 261.727 L 815.628 261.727 L 815.628 261.727 Q 815.382 262.042 815.202 262.33 L 815.202 262.33 L 819.402 262.33 L 819.402 263.29 L 819.402 263.29 Z  M 822.81 262.33 L 827.31 262.33 L 827.19 263.29 L 821.67 263.29 L 821.76 262.09 L 821.76 255.55 L 821.58 254.29 L 827.1 254.29 L 827.1 255.25 L 822.75 255.25 L 822.87 256.393 L 822.87 257.986 L 826.68 257.986 L 826.68 258.85 L 822.87 258.85 L 822.87 261.25 L 822.81 262.33 L 822.81 262.33 Z  M 834.204 254.206 L 834.054 255.232 L 834.054 255.232 Q 834.012 255.22 833.931 255.217 L 833.931 255.217 L 833.931 255.217 Q 833.85 255.214 833.784 255.214 L 833.784 255.214 L 833.784 255.214 Q 833.352 255.214 832.944 255.349 L 832.944 255.349 L 832.944 255.349 Q 832.536 255.484 832.176 255.729 L 832.176 255.729 L 832.176 255.729 Q 831.816 255.975 831.513 256.316 L 831.513 256.316 L 831.513 256.316 Q 831.21 256.658 830.979 257.068 L 830.979 257.068 L 830.979 257.068 Q 830.748 257.478 830.598 257.946 L 830.598 257.946 L 830.598 257.946 Q 830.448 258.413 830.4 258.91 L 830.4 258.91 L 830.898 258.204 L 830.898 258.204 Q 831.048 258.108 831.249 258.021 L 831.249 258.021 L 831.249 258.021 Q 831.45 257.933 831.672 257.867 L 831.672 257.867 L 831.672 257.867 Q 831.894 257.8 832.122 257.761 L 832.122 257.761 L 832.122 257.761 Q 832.35 257.722 832.554 257.722 L 832.554 257.722 L 832.554 257.722 Q 833.076 257.722 833.559 257.866 L 833.559 257.866 L 833.559 257.866 Q 834.042 258.01 834.417 258.311 L 834.417 258.311 L 834.417 258.311 Q 834.792 258.611 835.017 259.082 L 835.017 259.082 L 835.017 259.082 Q 835.242 259.554 835.242 260.209 L 835.242 260.209 L 835.242 260.209 Q 835.242 260.857 835.023 261.437 L 835.023 261.437 L 835.023 261.437 Q 834.804 262.017 834.408 262.452 L 834.408 262.452 L 834.408 262.452 Q 834.012 262.887 833.46 263.14 L 833.46 263.14 L 833.46 263.14 Q 832.908 263.392 832.236 263.392 L 832.236 263.392 L 832.236 263.392 Q 831.648 263.392 831.195 263.203 L 831.195 263.203 L 831.195 263.203 Q 830.742 263.014 830.406 262.702 L 830.406 262.702 L 830.406 262.702 Q 830.07 262.39 829.845 261.988 L 829.845 261.988 L 829.845 261.988 Q 829.62 261.586 829.479 261.163 L 829.479 261.163 L 829.479 261.163 Q 829.338 260.74 829.278 260.326 L 829.278 260.326 L 829.278 260.326 Q 829.218 259.912 829.218 259.57 L 829.218 259.57 L 829.218 259.57 Q 829.218 258.856 829.365 258.178 L 829.365 258.178 L 829.365 258.178 Q 829.512 257.5 829.791 256.903 L 829.791 256.903 L 829.791 256.903 Q 830.07 256.306 830.472 255.805 L 830.472 255.805 L 830.472 255.805 Q 830.874 255.304 831.387 254.947 L 831.387 254.947 L 831.387 254.947 Q 831.9 254.59 832.515 254.389 L 832.515 254.389 L 832.515 254.389 Q 833.13 254.188 833.838 254.188 L 833.838 254.188 L 833.838 254.188 Q 833.928 254.188 834.036 254.191 L 834.036 254.191 L 834.036 254.191 Q 834.144 254.194 834.204 254.206 L 834.204 254.206 L 834.204 254.206 Z  M 830.454 259.706 L 830.454 259.706 L 830.454 259.706 Q 830.454 259.874 830.457 260.012 L 830.457 260.012 L 830.457 260.012 Q 830.46 260.15 830.472 260.281 L 830.472 260.281 L 830.472 260.281 Q 830.484 260.413 830.508 260.548 L 830.508 260.548 L 830.508 260.548 Q 830.532 260.683 830.574 260.845 L 830.574 260.845 L 830.574 260.845 Q 830.658 261.186 830.805 261.464 L 830.805 261.464 L 830.805 261.464 Q 830.952 261.743 831.159 261.944 L 831.159 261.944 L 831.159 261.944 Q 831.366 262.144 831.639 262.255 L 831.639 262.255 L 831.639 262.255 Q 831.912 262.366 832.254 262.366 L 832.254 262.366 L 832.254 262.366 Q 832.728 262.366 833.061 262.186 L 833.061 262.186 L 833.061 262.186 Q 833.394 262.007 833.604 261.71 L 833.604 261.71 L 833.604 261.71 Q 833.814 261.414 833.913 261.036 L 833.913 261.036 L 833.913 261.036 Q 834.012 260.659 834.012 260.269 L 834.012 260.269 L 834.012 260.269 Q 834.012 259.892 833.901 259.605 L 833.901 259.605 L 833.901 259.605 Q 833.79 259.317 833.586 259.128 L 833.586 259.128 L 833.586 259.128 Q 833.382 258.94 833.097 258.844 L 833.097 258.844 L 833.097 258.844 Q 832.812 258.748 832.464 258.748 L 832.464 258.748 L 832.464 258.748 Q 832.14 258.748 831.834 258.826 L 831.834 258.826 L 831.834 258.826 Q 831.528 258.904 831.261 259.036 L 831.261 259.036 L 831.261 259.036 Q 830.994 259.167 830.787 259.341 L 830.787 259.341 L 830.787 259.341 Q 830.58 259.515 830.454 259.706 Z " fill="rgb(255,255,255)"/><path d=" M 889 257.59 L 887.668 257.59 L 887.368 259.99 L 889 259.99 L 888.88 260.89 L 887.266 260.89 L 886.966 263.29 L 885.76 263.41 L 886.084 260.89 L 884.446 260.89 L 884.158 263.29 L 882.958 263.41 L 883.264 260.89 L 882.1 260.89 L 882.1 259.99 L 883.366 259.99 L 883.672 257.59 L 882.1 257.59 L 882.22 256.69 L 883.774 256.69 L 883.918 255.58 L 883.918 254.29 L 885.274 254.17 L 884.956 256.69 L 886.594 256.69 L 886.882 254.29 L 888.088 254.17 L 887.782 256.69 L 889 256.69 L 889 257.59 L 889 257.59 Z  M 886.186 259.99 L 886.48 257.59 L 884.854 257.59 L 884.56 259.99 L 886.186 259.99 L 886.186 259.99 Z  M 890.362 255.25 L 890.362 254.29 L 896.02 254.29 L 896.02 255.07 L 896.02 255.07 Q 896.02 255.328 895.825 255.733 L 895.825 255.733 L 895.825 255.733 Q 895.63 256.138 895.33 256.642 L 895.33 256.642 L 895.33 256.642 Q 895.03 257.146 894.673 257.725 L 894.673 257.725 L 894.673 257.725 Q 894.316 258.304 893.995 258.913 L 893.995 258.913 L 893.995 258.913 Q 893.674 259.522 893.434 260.134 L 893.434 260.134 L 893.434 260.134 Q 893.194 260.746 893.128 261.316 L 893.128 261.316 L 893.128 261.316 Q 893.098 261.562 893.083 261.823 L 893.083 261.823 L 893.083 261.823 Q 893.068 262.084 893.059 262.342 L 893.059 262.342 L 893.059 262.342 Q 893.05 262.6 893.05 262.846 L 893.05 262.846 L 893.05 263.29 L 891.82 263.29 L 891.82 263.29 Q 891.82 263.11 891.823 262.807 L 891.823 262.807 L 891.823 262.807 Q 891.826 262.504 891.838 262.168 L 891.838 262.168 L 891.838 262.168 Q 891.85 261.832 891.88 261.502 L 891.88 261.502 L 891.88 261.502 Q 891.91 261.172 891.958 260.938 L 891.958 260.938 L 891.958 260.938 Q 892.096 260.296 892.351 259.675 L 892.351 259.675 L 892.351 259.675 Q 892.606 259.054 892.909 258.481 L 892.909 258.481 L 892.909 258.481 Q 893.212 257.908 893.53 257.398 L 893.53 257.398 L 893.53 257.398 Q 893.848 256.888 894.106 256.471 L 894.106 256.471 L 894.106 256.471 Q 894.364 256.054 894.529 255.742 L 894.529 255.742 L 894.529 255.742 Q 894.694 255.43 894.694 255.25 L 894.694 255.25 L 890.362 255.25 L 890.362 255.25 Z  M 902.794 258.61 L 902.314 259.312 L 902.314 259.312 Q 901.96 259.588 901.603 259.72 L 901.603 259.72 L 901.603 259.72 Q 901.246 259.852 900.796 259.852 L 900.796 259.852 L 900.796 259.852 Q 900.208 259.852 899.698 259.657 L 899.698 259.657 L 899.698 259.657 Q 899.188 259.462 898.81 259.102 L 898.81 259.102 L 898.81 259.102 Q 898.432 258.742 898.216 258.235 L 898.216 258.235 L 898.216 258.235 Q 898 257.728 898 257.104 L 898 257.104 L 898 257.104 Q 898 256.456 898.207 255.922 L 898.207 255.922 L 898.207 255.922 Q 898.414 255.388 898.795 255.001 L 898.795 255.001 L 898.795 255.001 Q 899.176 254.614 899.719 254.401 L 899.719 254.401 L 899.719 254.401 Q 900.262 254.188 900.934 254.188 L 900.934 254.188 L 900.934 254.188 Q 901.534 254.188 901.993 254.374 L 901.993 254.374 L 901.993 254.374 Q 902.452 254.56 902.788 254.866 L 902.788 254.866 L 902.788 254.866 Q 903.124 255.172 903.349 255.568 L 903.349 255.568 L 903.349 255.568 Q 903.574 255.964 903.709 256.39 L 903.709 256.39 L 903.709 256.39 Q 903.844 256.816 903.901 257.236 L 903.901 257.236 L 903.901 257.236 Q 903.958 257.656 903.958 258.01 L 903.958 258.01 L 903.958 258.01 Q 903.958 258.706 903.817 259.369 L 903.817 259.369 L 903.817 259.369 Q 903.676 260.032 903.403 260.62 L 903.403 260.62 L 903.403 260.62 Q 903.13 261.208 902.734 261.703 L 902.734 261.703 L 902.734 261.703 Q 902.338 262.198 901.831 262.564 L 901.831 262.564 L 901.831 262.564 Q 901.324 262.93 900.712 263.146 L 900.712 263.146 L 900.712 263.146 Q 900.1 263.362 899.392 263.392 L 899.392 263.392 L 899.206 262.39 L 899.206 262.39 Q 899.926 262.354 900.559 262.048 L 900.559 262.048 L 900.559 262.048 Q 901.192 261.742 901.675 261.235 L 901.675 261.235 L 901.675 261.235 Q 902.158 260.728 902.455 260.053 L 902.455 260.053 L 902.455 260.053 Q 902.752 259.378 902.794 258.61 L 902.794 258.61 L 902.794 258.61 Z  M 902.722 257.572 L 902.722 257.572 L 902.722 257.572 Q 902.704 257.122 902.593 256.699 L 902.593 256.699 L 902.593 256.699 Q 902.482 256.276 902.266 255.943 L 902.266 255.943 L 902.266 255.943 Q 902.05 255.61 901.732 255.409 L 901.732 255.409 L 901.732 255.409 Q 901.414 255.208 900.982 255.208 L 900.982 255.208 L 900.982 255.208 Q 900.574 255.208 900.25 255.34 L 900.25 255.34 L 900.25 255.34 Q 899.926 255.472 899.698 255.706 L 899.698 255.706 L 899.698 255.706 Q 899.47 255.94 899.347 256.27 L 899.347 256.27 L 899.347 256.27 Q 899.224 256.6 899.224 256.996 L 899.224 256.996 L 899.224 256.996 Q 899.224 257.386 899.323 257.722 L 899.323 257.722 L 899.323 257.722 Q 899.422 258.058 899.623 258.304 L 899.623 258.304 L 899.623 258.304 Q 899.824 258.55 900.133 258.691 L 900.133 258.691 L 900.133 258.691 Q 900.442 258.832 900.856 258.832 L 900.856 258.832 L 900.856 258.832 Q 901.174 258.832 901.465 258.73 L 901.465 258.73 L 901.465 258.73 Q 901.756 258.628 901.999 258.457 L 901.999 258.457 L 901.999 258.457 Q 902.242 258.286 902.428 258.058 L 902.428 258.058 L 902.428 258.058 Q 902.614 257.83 902.722 257.572 Z  M 908.38 263.29 L 906.16 263.29 L 906.16 255.55 L 905.98 254.35 L 905.98 254.35 Q 906.34 254.302 906.721 254.266 L 906.721 254.266 L 906.721 254.266 Q 907.102 254.23 907.492 254.23 L 907.492 254.23 L 907.492 254.23 Q 908.188 254.23 908.818 254.317 L 908.818 254.317 L 908.818 254.317 Q 909.448 254.404 909.925 254.632 L 909.925 254.632 L 909.925 254.632 Q 910.402 254.86 910.684 255.259 L 910.684 255.259 L 910.684 255.259 Q 910.966 255.658 910.966 256.276 L 910.966 256.276 L 910.966 256.276 Q 910.966 256.93 910.684 257.404 L 910.684 257.404 L 910.684 257.404 Q 910.402 257.878 909.88 258.13 L 909.88 258.13 L 908.956 258.394 L 909.838 258.478 L 909.838 258.478 Q 910.204 258.586 910.528 258.757 L 910.528 258.757 L 910.528 258.757 Q 910.852 258.928 911.089 259.174 L 911.089 259.174 L 911.089 259.174 Q 911.326 259.42 911.464 259.756 L 911.464 259.756 L 911.464 259.756 Q 911.602 260.092 911.602 260.53 L 911.602 260.53 L 911.602 260.53 Q 911.602 261.04 911.467 261.442 L 911.467 261.442 L 911.467 261.442 Q 911.332 261.844 911.098 262.15 L 911.098 262.15 L 911.098 262.15 Q 910.864 262.456 910.552 262.675 L 910.552 262.675 L 910.552 262.675 Q 910.24 262.894 909.883 263.029 L 909.883 263.029 L 909.883 263.029 Q 909.526 263.164 909.142 263.227 L 909.142 263.227 L 909.142 263.227 Q 908.758 263.29 908.38 263.29 L 908.38 263.29 L 908.38 263.29 Z  M 907.27 258.91 L 907.27 262.33 L 907.93 262.33 L 907.93 262.33 Q 908.524 262.33 908.989 262.243 L 908.989 262.243 L 908.989 262.243 Q 909.454 262.156 909.775 261.955 L 909.775 261.955 L 909.775 261.955 Q 910.096 261.754 910.264 261.421 L 910.264 261.421 L 910.264 261.421 Q 910.432 261.088 910.432 260.59 L 910.432 260.59 L 910.432 260.59 Q 910.432 260.14 910.276 259.822 L 910.276 259.822 L 910.276 259.822 Q 910.12 259.504 909.835 259.3 L 909.835 259.3 L 909.835 259.3 Q 909.55 259.096 909.148 259.003 L 909.148 259.003 L 909.148 259.003 Q 908.746 258.91 908.26 258.91 L 908.26 258.91 L 907.27 258.91 L 907.27 258.91 Z  M 907.054 255.13 L 907.27 256.408 L 907.27 257.98 L 907.9 257.98 L 907.9 257.98 Q 908.266 257.962 908.623 257.866 L 908.623 257.866 L 908.623 257.866 Q 908.98 257.77 909.259 257.581 L 909.259 257.581 L 909.259 257.581 Q 909.538 257.392 909.709 257.101 L 909.709 257.101 L 909.709 257.101 Q 909.88 256.81 909.88 256.402 L 909.88 256.402 L 909.88 256.402 Q 909.88 256.006 909.697 255.745 L 909.697 255.745 L 909.697 255.745 Q 909.514 255.484 909.226 255.334 L 909.226 255.334 L 909.226 255.334 Q 908.938 255.184 908.581 255.124 L 908.581 255.124 L 908.581 255.124 Q 908.224 255.064 907.882 255.064 L 907.882 255.064 L 907.882 255.064 Q 907.678 255.064 907.459 255.079 L 907.459 255.079 L 907.459 255.079 Q 907.24 255.094 907.054 255.13 L 907.054 255.13 L 907.054 255.13 Z  M 913.762 255.25 L 913.762 254.29 L 919.42 254.29 L 919.42 255.07 L 919.42 255.07 Q 919.42 255.328 919.225 255.733 L 919.225 255.733 L 919.225 255.733 Q 919.03 256.138 918.73 256.642 L 918.73 256.642 L 918.73 256.642 Q 918.43 257.146 918.073 257.725 L 918.073 257.725 L 918.073 257.725 Q 917.716 258.304 917.395 258.913 L 917.395 258.913 L 917.395 258.913 Q 917.074 259.522 916.834 260.134 L 916.834 260.134 L 916.834 260.134 Q 916.594 260.746 916.528 261.316 L 916.528 261.316 L 916.528 261.316 Q 916.498 261.562 916.483 261.823 L 916.483 261.823 L 916.483 261.823 Q 916.468 262.084 916.459 262.342 L 916.459 262.342 L 916.459 262.342 Q 916.45 262.6 916.45 262.846 L 916.45 262.846 L 916.45 263.29 L 915.22 263.29 L 915.22 263.29 Q 915.22 263.11 915.223 262.807 L 915.223 262.807 L 915.223 262.807 Q 915.226 262.504 915.238 262.168 L 915.238 262.168 L 915.238 262.168 Q 915.25 261.832 915.28 261.502 L 915.28 261.502 L 915.28 261.502 Q 915.31 261.172 915.358 260.938 L 915.358 260.938 L 915.358 260.938 Q 915.496 260.296 915.751 259.675 L 915.751 259.675 L 915.751 259.675 Q 916.006 259.054 916.309 258.481 L 916.309 258.481 L 916.309 258.481 Q 916.612 257.908 916.93 257.398 L 916.93 257.398 L 916.93 257.398 Q 917.248 256.888 917.506 256.471 L 917.506 256.471 L 917.506 256.471 Q 917.764 256.054 917.929 255.742 L 917.929 255.742 L 917.929 255.742 Q 918.094 255.43 918.094 255.25 L 918.094 255.25 L 913.762 255.25 L 913.762 255.25 Z  M 921.73 255.55 L 921.55 254.29 L 921.55 254.29 Q 921.736 254.272 921.976 254.26 L 921.976 254.26 L 921.976 254.26 Q 922.216 254.248 922.468 254.239 L 922.468 254.239 L 922.468 254.239 Q 922.72 254.23 922.966 254.227 L 922.966 254.227 L 922.966 254.227 Q 923.212 254.224 923.41 254.224 L 923.41 254.224 L 923.41 254.224 Q 924.364 254.224 925.177 254.458 L 925.177 254.458 L 925.177 254.458 Q 925.99 254.692 926.584 255.202 L 926.584 255.202 L 926.584 255.202 Q 927.178 255.712 927.514 256.51 L 927.514 256.51 L 927.514 256.51 Q 927.85 257.308 927.85 258.43 L 927.85 258.43 L 927.85 258.43 Q 927.85 259.306 927.682 260.005 L 927.682 260.005 L 927.682 260.005 Q 927.514 260.704 927.217 261.244 L 927.217 261.244 L 927.217 261.244 Q 926.92 261.784 926.503 262.171 L 926.503 262.171 L 926.503 262.171 Q 926.086 262.558 925.585 262.807 L 925.585 262.807 L 925.585 262.807 Q 925.084 263.056 924.52 263.173 L 924.52 263.173 L 924.52 263.173 Q 923.956 263.29 923.356 263.29 L 923.356 263.29 L 921.73 263.29 L 921.73 255.55 L 921.73 255.55 Z  M 922.72 255.19 L 922.87 256.39 L 922.87 262.33 L 922.99 262.33 L 922.99 262.33 Q 923.764 262.33 924.334 262.15 L 924.334 262.15 L 924.334 262.15 Q 924.904 261.97 925.303 261.673 L 925.303 261.673 L 925.303 261.673 Q 925.702 261.376 925.954 260.989 L 925.954 260.989 L 925.954 260.989 Q 926.206 260.602 926.347 260.188 L 926.347 260.188 L 926.347 260.188 Q 926.488 259.774 926.539 259.366 L 926.539 259.366 L 926.539 259.366 Q 926.59 258.958 926.59 258.61 L 926.59 258.61 L 926.59 258.61 Q 926.59 258.1 926.542 257.644 L 926.542 257.644 L 926.542 257.644 Q 926.494 257.188 926.362 256.804 L 926.362 256.804 L 926.362 256.804 Q 926.23 256.42 926.002 256.114 L 926.002 256.114 L 926.002 256.114 Q 925.774 255.808 925.414 255.592 L 925.414 255.592 L 925.414 255.592 Q 925.054 255.376 924.547 255.259 L 924.547 255.259 L 924.547 255.259 Q 924.04 255.142 923.356 255.142 L 923.356 255.142 L 923.356 255.142 Q 923.26 255.142 923.152 255.148 L 923.152 255.148 L 923.152 255.148 Q 923.044 255.154 922.948 255.166 L 922.948 255.166 L 922.72 255.19 L 922.72 255.19 Z  M 935.128 263.29 L 929.728 263.29 L 929.728 262.33 L 931.798 262.33 L 931.798 256.534 L 932.146 255.172 L 931.33 256.288 L 930.058 257.416 L 929.41 256.69 L 932.158 254.17 L 933.058 254.29 L 933.058 262.33 L 935.128 262.33 L 935.128 263.29 L 935.128 263.29 Z " fill="rgb(34,34,34)"/><path d=" M 489 257.59 L 487.668 257.59 L 487.368 259.99 L 489 259.99 L 488.88 260.89 L 487.266 260.89 L 486.966 263.29 L 485.76 263.41 L 486.084 260.89 L 484.446 260.89 L 484.158 263.29 L 482.958 263.41 L 483.264 260.89 L 482.1 260.89 L 482.1 259.99 L 483.366 259.99 L 483.672 257.59 L 482.1 257.59 L 482.22 256.69 L 483.774 256.69 L 483.918 255.58 L 483.918 254.29 L 485.274 254.17 L 484.956 256.69 L 486.594 256.69 L 486.882 254.29 L 488.088 254.17 L 487.782 256.69 L 489 256.69 L 489 257.59 L 489 257.59 Z  M 486.186 259.99 L 486.48 257.59 L 484.854 257.59 L 484.56 259.99 L 486.186 259.99 L 486.186 259.99 Z  M 492.036 255.25 L 492.036 257.398 L 492.036 257.398 Q 492.078 257.374 492.183 257.32 L 492.183 257.32 L 492.183 257.32 Q 492.288 257.266 492.444 257.212 L 492.444 257.212 L 492.444 257.212 Q 492.6 257.158 492.801 257.119 L 492.801 257.119 L 492.801 257.119 Q 493.002 257.08 493.248 257.08 L 493.248 257.08 L 493.248 257.08 Q 493.872 257.08 494.361 257.275 L 494.361 257.275 L 494.361 257.275 Q 494.85 257.47 495.189 257.809 L 495.189 257.809 L 495.189 257.809 Q 495.528 258.148 495.705 258.604 L 495.705 258.604 L 495.705 258.604 Q 495.882 259.06 495.882 259.576 L 495.882 259.576 L 495.882 259.576 Q 495.882 260.182 495.666 260.695 L 495.666 260.695 L 495.666 260.695 Q 495.45 261.208 495.075 261.619 L 495.075 261.619 L 495.075 261.619 Q 494.7 262.03 494.199 262.342 L 494.199 262.342 L 494.199 262.342 Q 493.698 262.654 493.131 262.867 L 493.131 262.867 L 493.131 262.867 Q 492.564 263.08 491.964 263.185 L 491.964 263.185 L 491.964 263.185 Q 491.364 263.29 490.788 263.29 L 490.788 263.29 L 490.788 262.33 L 490.788 262.33 Q 491.238 262.318 491.7 262.222 L 491.7 262.222 L 491.7 262.222 Q 492.162 262.126 492.591 261.958 L 492.591 261.958 L 492.591 261.958 Q 493.02 261.79 493.395 261.556 L 493.395 261.556 L 493.395 261.556 Q 493.77 261.322 494.049 261.034 L 494.049 261.034 L 494.049 261.034 Q 494.328 260.746 494.49 260.41 L 494.49 260.41 L 494.49 260.41 Q 494.652 260.074 494.652 259.702 L 494.652 259.702 L 494.652 259.702 Q 494.652 259.396 494.553 259.108 L 494.553 259.108 L 494.553 259.108 Q 494.454 258.82 494.259 258.595 L 494.259 258.595 L 494.259 258.595 Q 494.064 258.37 493.77 258.232 L 493.77 258.232 L 493.77 258.232 Q 493.476 258.094 493.086 258.094 L 493.086 258.094 L 493.086 258.094 Q 492.78 258.094 492.534 258.133 L 492.534 258.133 L 492.534 258.133 Q 492.288 258.172 492.096 258.232 L 492.096 258.232 L 492.096 258.232 Q 491.904 258.292 491.763 258.361 L 491.763 258.361 L 491.763 258.361 Q 491.622 258.43 491.532 258.49 L 491.532 258.49 L 490.788 258.49 L 490.788 254.29 L 495.306 254.29 L 495.306 255.25 L 492.036 255.25 L 492.036 255.25 Z  M 503.928 263.29 L 498.528 263.29 L 498.528 262.33 L 500.598 262.33 L 500.598 256.534 L 500.946 255.172 L 500.13 256.288 L 498.858 257.416 L 498.21 256.69 L 500.958 254.17 L 501.858 254.29 L 501.858 262.33 L 503.928 262.33 L 503.928 263.29 L 503.928 263.29 Z  M 508.687 254.188 L 508.687 254.188 L 508.687 254.188 Q 509.234 254.188 509.702 254.338 L 509.702 254.338 L 509.702 254.338 Q 510.17 254.488 510.51 254.77 L 510.51 254.77 L 510.51 254.77 Q 510.849 255.052 511.041 255.454 L 511.041 255.454 L 511.041 255.454 Q 511.233 255.856 511.233 256.36 L 511.233 256.36 L 511.233 256.36 Q 511.233 256.714 511.128 256.99 L 511.128 256.99 L 511.128 256.99 Q 511.023 257.266 510.843 257.485 L 510.843 257.485 L 510.843 257.485 Q 510.664 257.704 510.427 257.881 L 510.427 257.881 L 510.427 257.881 Q 510.19 258.058 509.926 258.214 L 509.926 258.214 L 509.926 258.214 Q 510.371 258.412 510.722 258.667 L 510.722 258.667 L 510.722 258.667 Q 511.073 258.922 511.317 259.243 L 511.317 259.243 L 511.317 259.243 Q 511.56 259.564 511.689 259.96 L 511.689 259.96 L 511.689 259.96 Q 511.818 260.356 511.818 260.83 L 511.818 260.83 L 511.818 260.83 Q 511.818 261.496 511.554 261.979 L 511.554 261.979 L 511.554 261.979 Q 511.289 262.462 510.854 262.777 L 510.854 262.777 L 510.854 262.777 Q 510.419 263.092 509.863 263.242 L 509.863 263.242 L 509.863 263.242 Q 509.307 263.392 508.725 263.392 L 508.725 263.392 L 508.725 263.392 Q 508.154 263.392 507.626 263.221 L 507.626 263.221 L 507.626 263.221 Q 507.097 263.05 506.692 262.717 L 506.692 262.717 L 506.692 262.717 Q 506.286 262.384 506.04 261.889 L 506.04 261.889 L 506.04 261.889 Q 505.794 261.394 505.794 260.746 L 505.794 260.746 L 505.794 260.746 Q 505.794 260.266 505.932 259.876 L 505.932 259.876 L 505.932 259.876 Q 506.07 259.486 506.311 259.174 L 506.311 259.174 L 506.311 259.174 Q 506.551 258.862 506.881 258.619 L 506.881 258.619 L 506.881 258.619 Q 507.211 258.376 507.596 258.19 L 507.596 258.19 L 507.596 258.19 Q 507.313 258.016 507.07 257.83 L 507.07 257.83 L 507.07 257.83 Q 506.827 257.644 506.644 257.431 L 506.644 257.431 L 506.644 257.431 Q 506.46 257.218 506.355 256.972 L 506.355 256.972 L 506.355 256.972 Q 506.25 256.726 506.25 256.426 L 506.25 256.426 L 506.25 256.426 Q 506.25 255.844 506.481 255.421 L 506.481 255.421 L 506.481 255.421 Q 506.712 254.998 507.073 254.725 L 507.073 254.725 L 507.073 254.725 Q 507.433 254.452 507.862 254.32 L 507.862 254.32 L 507.862 254.32 Q 508.291 254.188 508.687 254.188 Z  M 508.62 258.73 L 508.62 258.73 L 508.62 258.73 Q 508.242 258.892 507.939 259.087 L 507.939 259.087 L 507.939 259.087 Q 507.636 259.282 507.423 259.531 L 507.423 259.531 L 507.423 259.531 Q 507.21 259.78 507.093 260.095 L 507.093 260.095 L 507.093 260.095 Q 506.976 260.41 506.976 260.806 L 506.976 260.806 L 506.976 260.806 Q 506.976 261.166 507.123 261.46 L 507.123 261.46 L 507.123 261.46 Q 507.27 261.754 507.513 261.967 L 507.513 261.967 L 507.513 261.967 Q 507.756 262.18 508.074 262.294 L 508.074 262.294 L 508.074 262.294 Q 508.392 262.408 508.728 262.408 L 508.728 262.408 L 508.728 262.408 Q 509.112 262.408 509.457 262.303 L 509.457 262.303 L 509.457 262.303 Q 509.802 262.198 510.063 261.994 L 510.063 261.994 L 510.063 261.994 Q 510.324 261.79 510.474 261.49 L 510.474 261.49 L 510.474 261.49 Q 510.624 261.19 510.624 260.8 L 510.624 260.8 L 510.624 260.8 Q 510.624 260.398 510.447 260.083 L 510.447 260.083 L 510.447 260.083 Q 510.27 259.768 509.985 259.519 L 509.985 259.519 L 509.985 259.519 Q 509.7 259.27 509.343 259.078 L 509.343 259.078 L 509.343 259.078 Q 508.986 258.886 508.62 258.73 Z  M 508.868 257.752 L 508.868 257.752 L 508.868 257.752 Q 509.42 257.506 509.748 257.158 L 509.748 257.158 L 509.748 257.158 Q 510.075 256.81 510.075 256.312 L 510.075 256.312 L 510.075 256.312 Q 510.075 256.012 509.952 255.796 L 509.952 255.796 L 509.952 255.796 Q 509.829 255.58 509.643 255.442 L 509.643 255.442 L 509.643 255.442 Q 509.456 255.304 509.231 255.241 L 509.231 255.241 L 509.231 255.241 Q 509.006 255.178 508.802 255.178 L 508.802 255.178 L 508.802 255.178 Q 508.531 255.178 508.279 255.259 L 508.279 255.259 L 508.279 255.259 Q 508.027 255.34 507.834 255.49 L 507.834 255.49 L 507.834 255.49 Q 507.642 255.64 507.525 255.844 L 507.525 255.844 L 507.525 255.844 Q 507.408 256.048 507.408 256.288 L 507.408 256.288 L 507.408 256.288 Q 507.408 256.564 507.525 256.777 L 507.525 256.777 L 507.525 256.777 Q 507.642 256.99 507.843 257.161 L 507.843 257.161 L 507.843 257.161 Q 508.045 257.332 508.309 257.476 L 508.309 257.476 L 508.309 257.476 Q 508.573 257.62 508.868 257.752 Z  M 513.999 263.29 L 512.895 263.29 L 515.727 255.49 L 515.937 254.29 L 517.005 254.17 L 520.293 263.29 L 519.093 263.29 L 518.205 260.59 L 514.995 260.59 L 513.999 263.29 L 513.999 263.29 Z  M 516.843 256.81 L 516.573 254.89 L 516.303 256.81 L 515.289 259.69 L 517.911 259.69 L 516.843 256.81 L 516.843 256.81 Z  M 521.562 255.25 L 521.562 254.29 L 527.22 254.29 L 527.22 255.07 L 527.22 255.07 Q 527.22 255.328 527.025 255.733 L 527.025 255.733 L 527.025 255.733 Q 526.83 256.138 526.53 256.642 L 526.53 256.642 L 526.53 256.642 Q 526.23 257.146 525.873 257.725 L 525.873 257.725 L 525.873 257.725 Q 525.516 258.304 525.195 258.913 L 525.195 258.913 L 525.195 258.913 Q 524.874 259.522 524.634 260.134 L 524.634 260.134 L 524.634 260.134 Q 524.394 260.746 524.328 261.316 L 524.328 261.316 L 524.328 261.316 Q 524.298 261.562 524.283 261.823 L 524.283 261.823 L 524.283 261.823 Q 524.268 262.084 524.259 262.342 L 524.259 262.342 L 524.259 262.342 Q 524.25 262.6 524.25 262.846 L 524.25 262.846 L 524.25 263.29 L 523.02 263.29 L 523.02 263.29 Q 523.02 263.11 523.023 262.807 L 523.023 262.807 L 523.023 262.807 Q 523.026 262.504 523.038 262.168 L 523.038 262.168 L 523.038 262.168 Q 523.05 261.832 523.08 261.502 L 523.08 261.502 L 523.08 261.502 Q 523.11 261.172 523.158 260.938 L 523.158 260.938 L 523.158 260.938 Q 523.296 260.296 523.551 259.675 L 523.551 259.675 L 523.551 259.675 Q 523.806 259.054 524.109 258.481 L 524.109 258.481 L 524.109 258.481 Q 524.412 257.908 524.73 257.398 L 524.73 257.398 L 524.73 257.398 Q 525.048 256.888 525.306 256.471 L 525.306 256.471 L 525.306 256.471 Q 525.564 256.054 525.729 255.742 L 525.729 255.742 L 525.729 255.742 Q 525.894 255.43 525.894 255.25 L 525.894 255.25 L 521.562 255.25 L 521.562 255.25 Z  M 530.61 262.33 L 535.11 262.33 L 534.99 263.29 L 529.47 263.29 L 529.56 262.09 L 529.56 255.55 L 529.38 254.29 L 534.9 254.29 L 534.9 255.25 L 530.55 255.25 L 530.67 256.393 L 530.67 257.986 L 534.48 257.986 L 534.48 258.85 L 530.67 258.85 L 530.67 261.25 L 530.61 262.33 L 530.61 262.33 Z " fill="rgb(255,255,255)"/></g></svg>