<?xml version="1.0" encoding="UTF-8" standalone="no"?><!-- Generator: Gravit.io --><svg xmlns="http://www.w3.org/2000/svg" xmlns:xlink="http://www.w3.org/1999/xlink" style="isolation:isolate" viewBox="3767 1779 1280 800" width="1280pt" height="800pt"><clipPath id="_clipPath_Uw2bYRbCbXTnV3Z5nvOX9SIXBVbFVJFM"><rect x="3767" y="1779" width="1280" height="800" transform="matrix(1,0,0,1,0,0)" fill="rgb(255,255,255)"/></clipPath><g clip-path="url(#_clipPath_Uw2bYRbCbXTnV3Z5nvOX9SIXBVbFVJFM)"><g><g><g><path d=" M 4813.867 2946.77 L 5603.733 2486.68 L 4799.762 2009.23 L 4024 2490.741 L 4813.867 2946.77 Z " fill="rgb(81,138,126)"/><path d=" M 4712.133 2596.036 L 5102.267 2368.787 L 4705.167 2132.963 L 4322 2370.792 L 4712.133 2596.036 Z " fill="rgb(123,219,161)"/><path d=" M 4712.133 2596.036 L 4712.133 2622.267 L 4322 2397.024 L 4322 2370.792 L 4712.133 2596.036 Z " fill="rgb(78,213,132)"/><path d=" M 4712.133 2596.036 L 5102.267 2368.787 L 5102.267 2395.018 L 4712.133 2622.267 L 4712.133 2596.036 Z " fill="rgb(58,145,93)"/></g><g opacity="0.25"><path d=" M 4732 2489 L 4900 2487 L 5047 2401 L 5047 2337 L 4921 2261 L 4732 2489 Z " fill="rgb(58,145,93)"/></g><g><path d=" M 4733.033 2378.577 L 4733.033 2490.061 L 4921.133 2382.251 L 4921.133 2237.978 L 4830.567 2225.036 L 4733.033 2365.461 L 4733.033 2378.577 Z " fill="rgb(134,202,232)"/><path d=" M 4802.7 2326.989 L 4803.228 2449.829 L 4858.255 2418.289 L 4858.433 2300.146 L 4802.7 2326.989 Z " fill="rgb(182,227,246)"/><path d=" M 4802.7 2326.989 L 4858.255 2418.289 L 4858.433 2300.146 L 4802.7 2326.989 Z " fill="rgb(151,214,240)"/><ellipse vector-effect="non-scaling-stroke" cx="4813.15" cy="2382.2062621991627" rx="3.483333333333576" ry="5.290036524715106" fill="rgb(134,202,232)"/><path d=" M 4733.033 2490.061 L 4482.233 2345.261 L 4482.233 2227.22 L 4733.033 2365.461 L 4733.033 2490.061 Z " fill="rgb(182,227,246)"/></g><g><linearGradient id="_lgradient_0" x1="0.5000000000000001" y1="1" x2="0.49999999999999994" y2="0" gradientTransform="matrix(41.8,0,0,96.27,4621.567,2327.337)" gradientUnits="userSpaceOnUse"><stop offset="0%" stop-opacity="1" style="stop-color:rgb(44,130,230)"/><stop offset="97.91666666666666%" stop-opacity="1" style="stop-color:rgb(255,255,255)"/></linearGradient><path d=" M 4621.567 2399.474 L 4663.367 2423.607 L 4663.367 2351.471 L 4621.567 2327.337 L 4621.567 2399.474 Z " fill="url(#_lgradient_0)"/><g opacity="0.48"><path d=" M 4621.567 2399.474 L 4663.367 2351.471 L 4621.567 2327.337 L 4621.567 2399.474 Z " fill="rgb(44,130,230)"/></g><linearGradient id="_lgradient_1" x1="0.5000000000000001" y1="1" x2="0.49999999999999994" y2="0" gradientTransform="matrix(41.8,0,0,89.712,4524.033,2277.584)" gradientUnits="userSpaceOnUse"><stop offset="0%" stop-opacity="1" style="stop-color:rgb(44,130,230)"/><stop offset="97.91666666666666%" stop-opacity="1" style="stop-color:rgb(255,255,255)"/></linearGradient><path d=" M 4565.833 2367.296 L 4524.033 2343.163 L 4524.033 2277.584 L 4565.833 2301.718 L 4565.833 2367.296 Z " fill="url(#_lgradient_1)"/><g opacity="0.48"><path d=" M 4524.033 2343.068 L 4565.833 2295.065 L 4524.033 2270.932 L 4524.033 2343.068 Z " fill="rgb(44,130,230)"/></g></g><g><path d=" M 4719.1 2396.764 L 4454.367 2243.92 L 4447.4 2226.782 L 4712.133 2379.626 L 4719.1 2396.764 Z " fill="rgb(82,161,195)"/><path d=" M 4572.8 2063.099 L 4691.233 2085.571 L 4955.967 2238.415 L 4837.533 2215.943 L 4572.8 2063.099 Z " fill="rgb(82,161,195)"/><path d=" M 4955.967 2238.415 L 4949 2254.067 L 4844.5 2233.081 L 4719.1 2396.764 L 4712.133 2379.626 L 4837.533 2215.943 L 4955.967 2238.415" fill="rgb(81,128,156)"/><path d=" M 4837.533 2215.943 L 4712.133 2379.626 L 4447.4 2226.782 L 4572.8 2063.099 L 4837.533 2215.943 Z " fill="rgb(121,183,209)"/></g><g><path d=" M 4749.107 2214.584 L 4751.843 2222.799 L 4679.788 2312.998 L 4532.697 2227.676 L 4532.328 2220.837 L 4602.129 2129.727 L 4749.107 2214.584 Z " fill="rgb(232,232,232)"/><path d=" M 4749.753 2215.136 L 4679.788 2306.147 L 4532.393 2220.709 L 4602.129 2129.727 L 4749.753 2215.136 Z " fill="rgb(209,209,209)"/><linearGradient id="_lgradient_2" x1="0" y1="0.5" x2="1" y2="0.5" gradientTransform="matrix(203.427,0,0,165.111,4539.36,2135.381)" gradientUnits="userSpaceOnUse"><stop offset="0%" stop-opacity="1" style="stop-color:rgb(59,63,106)"/><stop offset="96.66666666666667%" stop-opacity="1" style="stop-color:rgb(111,140,191)"/></linearGradient><path d=" M 4742.787 2215.315 L 4677.306 2300.492 L 4539.36 2220.531 L 4604.626 2135.381 L 4742.787 2215.315 Z " fill="url(#_lgradient_2)"/><line x1="4679.788" y1="2304.52" x2="4679.788" y2="2312.458" vector-effect="non-scaling-stroke" stroke-width="3" stroke="rgb(209,209,209)" stroke-linejoin="miter" stroke-linecap="square" stroke-miterlimit="3"/></g><g><line x1="4589.52" y1="2249.969" x2="4655.007" y2="2164.976" vector-effect="non-scaling-stroke" stroke-width="3" stroke="rgb(209,209,209)" stroke-linejoin="miter" stroke-linecap="square" stroke-miterlimit="3"/><line x1="4572.85" y1="2238.126" x2="4638.337" y2="2153.132" vector-effect="non-scaling-stroke" stroke-width="3" stroke="rgb(209,209,209)" stroke-linejoin="miter" stroke-linecap="square" stroke-miterlimit="3"/><line x1="4556.777" y1="2228.372" x2="4622.263" y2="2143.379" vector-effect="non-scaling-stroke" stroke-width="3" stroke="rgb(209,209,209)" stroke-linejoin="miter" stroke-linecap="square" stroke-miterlimit="3"/><line x1="4607.633" y1="2259.722" x2="4673.12" y2="2174.729" vector-effect="non-scaling-stroke" stroke-width="3" stroke="rgb(209,209,209)" stroke-linejoin="miter" stroke-linecap="square" stroke-miterlimit="3"/><line x1="4622.263" y1="2269.476" x2="4687.75" y2="2184.482" vector-effect="non-scaling-stroke" stroke-width="3" stroke="rgb(209,209,209)" stroke-linejoin="miter" stroke-linecap="square" stroke-miterlimit="3"/><line x1="4640.377" y1="2278.532" x2="4705.863" y2="2193.539" vector-effect="non-scaling-stroke" stroke-width="3" stroke="rgb(209,209,209)" stroke-linejoin="miter" stroke-linecap="square" stroke-miterlimit="3"/><line x1="4657.793" y1="2287.589" x2="4723.28" y2="2202.596" vector-effect="non-scaling-stroke" stroke-width="3" stroke="rgb(209,209,209)" stroke-linejoin="miter" stroke-linecap="square" stroke-miterlimit="3"/><mask id="_mask_aFcON9HgnspW3BYpvolEmtH8pEy4VbfO"><line x1="4742.787" y1="2215.315" x2="4604.626" y2="2135.381" fill="white" stroke="none"/></mask><line x1="4742.787" y1="2215.315" x2="4604.626" y2="2135.381" mask="url(#_mask_aFcON9HgnspW3BYpvolEmtH8pEy4VbfO)" vector-effect="non-scaling-stroke" stroke-width="6" stroke="rgb(209,209,209)" stroke-linejoin="miter" stroke-linecap="square" stroke-miterlimit="3"/></g><g><line x1="4733.033" y1="2234.304" x2="4586.733" y2="2149.838" vector-effect="non-scaling-stroke" stroke-width="3" stroke="rgb(209,209,209)" stroke-linejoin="miter" stroke-linecap="square" stroke-miterlimit="3"/><line x1="4719.1" y1="2252.491" x2="4572.8" y2="2168.025" vector-effect="non-scaling-stroke" stroke-width="3" stroke="rgb(209,209,209)" stroke-linejoin="miter" stroke-linecap="square" stroke-miterlimit="3"/><line x1="4705.167" y1="2270.678" x2="4558.867" y2="2186.212" vector-effect="non-scaling-stroke" stroke-width="3" stroke="rgb(209,209,209)" stroke-linejoin="miter" stroke-linecap="square" stroke-miterlimit="3"/><line x1="4691.233" y1="2288.865" x2="4544.933" y2="2204.399" vector-effect="non-scaling-stroke" stroke-width="3" stroke="rgb(209,209,209)" stroke-linejoin="miter" stroke-linecap="square" stroke-miterlimit="3"/></g><rect x="4681" y="2308.5" width="2" height="7" transform="matrix(0.719,0.695,-0.695,0.719,2919.786,-2603.391)" fill="rgb(121,183,209)"/><rect x="4677" y="2309.5" width="2" height="7" transform="matrix(0.442,-0.897,0.897,0.442,534.534,5485.592)" fill="rgb(121,183,209)"/></g><g><rect x="4372.251" y="2319.85" width="13.172" height="52.689" transform="matrix(1,0,0,1,0,0)" fill="rgb(138,107,81)"/><ellipse vector-effect="non-scaling-stroke" cx="4378.836718543919" cy="2372.5386539269402" rx="6.586125032972632" ry="1.646531258243158" fill="rgb(138,107,81)"/><ellipse vector-effect="non-scaling-stroke" cx="4378.83671854392" cy="2231.424826831579" rx="41.16328145607986" ry="88.42482683157914" fill="rgb(78,213,132)"/><linearGradient id="_lgradient_3" x1="0.5" y1="0" x2="0.5000000000000001" y2="1" gradientTransform="matrix(82.327,0,0,176.85,4337.673,2143)" gradientUnits="userSpaceOnUse"><stop offset="27.500000000000004%" stop-opacity="1" style="stop-color:rgb(73,232,136)"/><stop offset="64.16666666666667%" stop-opacity="1" style="stop-color:rgb(33,193,97)"/></linearGradient><ellipse vector-effect="non-scaling-stroke" cx="4378.83671854392" cy="2231.424826831579" rx="41.16328145607986" ry="88.42482683157914" fill="url(#_lgradient_3)"/></g></g></g></svg>