<?xml version="1.0" encoding="UTF-8" standalone="no"?><!-- Generator: Gravit.io --><svg xmlns="http://www.w3.org/2000/svg" xmlns:xlink="http://www.w3.org/1999/xlink" style="isolation:isolate" viewBox="884.5 411.5 159 57.002" width="159pt" height="57.002pt"><g><path d=" M 978.851 444.349 L 977.051 446.641 L 977.051 446.641 Q 976.499 446.317 976.049 446.095 L 976.049 446.095 L 976.049 446.095 Q 975.599 445.873 975.215 445.741 L 975.215 445.741 L 975.215 445.741 Q 974.831 445.609 974.489 445.549 L 974.489 445.549 L 974.489 445.549 Q 974.147 445.489 973.811 445.489 L 973.811 445.489 L 973.811 445.489 Q 973.367 445.489 972.929 445.573 L 972.929 445.573 L 972.929 445.573 Q 972.491 445.657 972.143 445.861 L 972.143 445.861 L 972.143 445.861 Q 971.795 446.065 971.579 446.413 L 971.579 446.413 L 971.579 446.413 Q 971.363 446.761 971.363 447.277 L 971.363 447.277 L 971.363 447.277 Q 971.363 447.769 971.609 448.123 L 971.609 448.123 L 971.609 448.123 Q 971.855 448.477 972.257 448.753 L 972.257 448.753 L 972.257 448.753 Q 972.659 449.029 973.169 449.257 L 973.169 449.257 L 973.169 449.257 Q 973.679 449.485 974.207 449.725 L 974.207 449.725 L 974.207 449.725 Q 975.107 450.145 976.031 450.631 L 976.031 450.631 L 976.031 450.631 Q 976.955 451.117 977.699 451.777 L 977.699 451.777 L 977.699 451.777 Q 978.443 452.437 978.917 453.319 L 978.917 453.319 L 978.917 453.319 Q 979.391 454.201 979.391 455.401 L 979.391 455.401 L 979.391 455.401 Q 979.391 456.793 978.815 457.837 L 978.815 457.837 L 978.815 457.837 Q 978.239 458.881 977.285 459.577 L 977.285 459.577 L 977.285 459.577 Q 976.331 460.273 975.089 460.627 L 975.089 460.627 L 975.089 460.627 Q 973.847 460.981 972.527 460.981 L 972.527 460.981 L 972.527 460.981 Q 971.015 460.981 969.737 460.555 L 969.737 460.555 L 969.737 460.555 Q 968.459 460.129 967.175 459.325 L 967.175 459.325 L 968.831 456.601 L 968.831 456.601 Q 969.155 456.817 969.599 457.057 L 969.599 457.057 L 969.599 457.057 Q 970.043 457.297 970.541 457.495 L 970.541 457.495 L 970.541 457.495 Q 971.039 457.693 971.543 457.819 L 971.543 457.819 L 971.543 457.819 Q 972.047 457.945 972.503 457.945 L 972.503 457.945 L 972.503 457.945 Q 973.031 457.945 973.547 457.831 L 973.547 457.831 L 973.547 457.831 Q 974.063 457.717 974.465 457.447 L 974.465 457.447 L 974.465 457.447 Q 974.867 457.177 975.113 456.733 L 975.113 456.733 L 975.113 456.733 Q 975.359 456.289 975.359 455.617 L 975.359 455.617 L 975.359 455.617 Q 975.359 454.969 975.065 454.501 L 975.065 454.501 L 975.065 454.501 Q 974.771 454.033 974.297 453.679 L 974.297 453.679 L 974.297 453.679 Q 973.823 453.325 973.223 453.037 L 973.223 453.037 L 973.223 453.037 Q 972.623 452.749 972.011 452.461 L 972.011 452.461 L 972.011 452.461 Q 971.147 452.053 970.331 451.597 L 970.331 451.597 L 970.331 451.597 Q 969.515 451.141 968.873 450.565 L 968.873 450.565 L 968.873 450.565 Q 968.231 449.989 967.841 449.269 L 967.841 449.269 L 967.841 449.269 Q 967.451 448.549 967.451 447.613 L 967.451 447.613 L 967.451 447.613 Q 967.451 446.401 967.967 445.459 L 967.967 445.459 L 967.967 445.459 Q 968.483 444.517 969.335 443.875 L 969.335 443.875 L 969.335 443.875 Q 970.187 443.233 971.279 442.903 L 971.279 442.903 L 971.279 442.903 Q 972.371 442.573 973.523 442.573 L 973.523 442.573 L 973.523 442.573 Q 974.939 442.573 976.223 443.011 L 976.223 443.011 L 976.223 443.011 Q 977.507 443.449 978.851 444.349 L 978.851 444.349 L 978.851 444.349 Z  M 988.499 460.981 L 988.499 460.981 L 988.499 460.981 Q 987.059 460.981 985.859 460.459 L 985.859 460.459 L 985.859 460.459 Q 984.659 459.937 983.789 459.019 L 983.789 459.019 L 983.789 459.019 Q 982.919 458.101 982.433 456.853 L 982.433 456.853 L 982.433 456.853 Q 981.947 455.605 981.947 454.141 L 981.947 454.141 L 981.947 454.141 Q 981.947 452.689 982.415 451.441 L 982.415 451.441 L 982.415 451.441 Q 982.883 450.193 983.741 449.281 L 983.741 449.281 L 983.741 449.281 Q 984.599 448.369 985.811 447.847 L 985.811 447.847 L 985.811 447.847 Q 987.023 447.325 988.499 447.373 L 988.499 447.373 L 988.499 447.373 Q 989.939 447.325 991.127 447.847 L 991.127 447.847 L 991.127 447.847 Q 992.315 448.369 993.161 449.281 L 993.161 449.281 L 993.161 449.281 Q 994.007 450.193 994.475 451.441 L 994.475 451.441 L 994.475 451.441 Q 994.943 452.689 994.943 454.141 L 994.943 454.141 L 994.943 454.141 Q 994.943 455.605 994.493 456.853 L 994.493 456.853 L 994.493 456.853 Q 994.043 458.101 993.203 459.019 L 993.203 459.019 L 993.203 459.019 Q 992.363 459.937 991.175 460.459 L 991.175 460.459 L 991.175 460.459 Q 989.987 460.981 988.499 460.981 Z  M 991.031 454.441 L 991.031 454.441 L 991.031 454.441 Q 991.031 453.625 990.893 452.833 L 990.893 452.833 L 990.893 452.833 Q 990.755 452.041 990.443 451.411 L 990.443 451.411 L 990.443 451.411 Q 990.131 450.781 989.639 450.397 L 989.639 450.397 L 989.639 450.397 Q 989.147 450.013 988.451 450.013 L 988.451 450.013 L 988.451 450.013 Q 987.779 450.013 987.293 450.343 L 987.293 450.343 L 987.293 450.343 Q 986.807 450.673 986.495 451.225 L 986.495 451.225 L 986.495 451.225 Q 986.183 451.777 986.027 452.479 L 986.027 452.479 L 986.027 452.479 Q 985.871 453.181 985.871 453.925 L 985.871 453.925 L 985.871 453.925 Q 985.871 454.753 986.027 455.545 L 986.027 455.545 L 986.027 455.545 Q 986.183 456.337 986.507 456.955 L 986.507 456.955 L 986.507 456.955 Q 986.831 457.573 987.335 457.957 L 987.335 457.957 L 987.335 457.957 Q 987.839 458.341 988.547 458.341 L 988.547 458.341 L 988.547 458.341 Q 989.195 458.341 989.669 458.011 L 989.669 458.011 L 989.669 458.011 Q 990.143 457.681 990.443 457.129 L 990.443 457.129 L 990.443 457.129 Q 990.743 456.577 990.887 455.881 L 990.887 455.881 L 990.887 455.881 Q 991.031 455.185 991.031 454.441 Z  M 1001.651 445.273 L 1002.491 444.193 L 1000.451 444.673 L 998.339 444.673 L 998.015 441.985 L 1005.455 441.985 L 1005.455 456.121 L 1005.455 456.121 Q 1005.455 456.733 1005.575 457.147 L 1005.575 457.147 L 1005.575 457.147 Q 1005.695 457.561 1005.893 457.813 L 1005.893 457.813 L 1005.893 457.813 Q 1006.091 458.065 1006.343 458.173 L 1006.343 458.173 L 1006.343 458.173 Q 1006.595 458.281 1006.847 458.281 L 1006.847 458.281 L 1006.847 458.281 Q 1007.183 458.281 1007.465 458.179 L 1007.465 458.179 L 1007.465 458.179 Q 1007.747 458.077 1007.987 457.921 L 1007.987 457.921 L 1007.987 457.921 Q 1008.227 457.765 1008.425 457.567 L 1008.425 457.567 L 1008.425 457.567 Q 1008.623 457.369 1008.779 457.177 L 1008.779 457.177 L 1010.075 459.493 L 1010.075 459.493 Q 1009.943 459.601 1009.703 459.847 L 1009.703 459.847 L 1009.703 459.847 Q 1009.463 460.093 1009.061 460.345 L 1009.061 460.345 L 1009.061 460.345 Q 1008.659 460.597 1008.065 460.789 L 1008.065 460.789 L 1008.065 460.789 Q 1007.471 460.981 1006.631 460.981 L 1006.631 460.981 L 1006.631 460.981 Q 1005.335 460.981 1004.399 460.573 L 1004.399 460.573 L 1004.399 460.573 Q 1003.463 460.165 1002.851 459.469 L 1002.851 459.469 L 1002.851 459.469 Q 1002.239 458.773 1001.945 457.837 L 1001.945 457.837 L 1001.945 457.837 Q 1001.651 456.901 1001.651 455.857 L 1001.651 455.857 L 1001.651 445.273 L 1001.651 445.273 Z  M 1025.519 458.377 L 1025.795 460.777 L 1021.715 460.777 L 1021.715 459.577 L 1020.707 460.717 L 1020.707 460.717 Q 1020.287 460.849 1019.873 460.915 L 1019.873 460.915 L 1019.873 460.915 Q 1019.459 460.981 1019.099 460.981 L 1019.099 460.981 L 1019.099 460.981 Q 1018.103 460.981 1017.095 460.687 L 1017.095 460.687 L 1017.095 460.687 Q 1016.087 460.393 1015.277 459.823 L 1015.277 459.823 L 1015.277 459.823 Q 1014.467 459.253 1013.957 458.413 L 1013.957 458.413 L 1013.957 458.413 Q 1013.447 457.573 1013.447 456.481 L 1013.447 456.481 L 1013.447 456.481 Q 1013.447 455.329 1013.963 454.489 L 1013.963 454.489 L 1013.963 454.489 Q 1014.479 453.649 1015.325 453.103 L 1015.325 453.103 L 1015.325 453.103 Q 1016.171 452.557 1017.239 452.293 L 1017.239 452.293 L 1017.239 452.293 Q 1018.307 452.029 1019.423 452.029 L 1019.423 452.029 L 1019.423 452.029 Q 1020.107 452.029 1020.671 452.071 L 1020.671 452.071 L 1020.671 452.071 Q 1021.235 452.113 1021.715 452.197 L 1021.715 452.197 L 1021.715 452.197 Q 1021.667 451.177 1021.199 450.577 L 1021.199 450.577 L 1021.199 450.577 Q 1020.731 449.977 1019.759 449.977 L 1019.759 449.977 L 1019.759 449.977 Q 1019.231 449.977 1018.697 450.037 L 1018.697 450.037 L 1018.697 450.037 Q 1018.163 450.097 1017.671 450.205 L 1017.671 450.205 L 1017.671 450.205 Q 1017.179 450.313 1016.753 450.445 L 1016.753 450.445 L 1016.753 450.445 Q 1016.327 450.577 1016.003 450.721 L 1016.003 450.721 L 1014.875 448.501 L 1014.875 448.501 Q 1015.427 448.249 1015.937 448.039 L 1015.937 448.039 L 1015.937 448.039 Q 1016.447 447.829 1017.017 447.679 L 1017.017 447.679 L 1017.017 447.679 Q 1017.587 447.529 1018.271 447.451 L 1018.271 447.451 L 1018.271 447.451 Q 1018.955 447.373 1019.879 447.373 L 1019.879 447.373 L 1019.879 447.373 Q 1021.415 447.373 1022.489 447.751 L 1022.489 447.751 L 1022.489 447.751 Q 1023.563 448.129 1024.235 448.819 L 1024.235 448.819 L 1024.235 448.819 Q 1024.907 449.509 1025.213 450.475 L 1025.213 450.475 L 1025.213 450.475 Q 1025.519 451.441 1025.519 452.605 L 1025.519 452.605 L 1025.519 458.377 L 1025.519 458.377 Z  M 1021.715 457.177 L 1021.715 454.777 L 1021.715 454.777 Q 1021.535 454.765 1021.295 454.753 L 1021.295 454.753 L 1021.295 454.753 Q 1021.055 454.741 1020.803 454.735 L 1020.803 454.735 L 1020.803 454.735 Q 1020.551 454.729 1020.305 454.723 L 1020.305 454.723 L 1020.305 454.723 Q 1020.059 454.717 1019.879 454.717 L 1019.879 454.717 L 1019.879 454.717 Q 1019.423 454.717 1018.973 454.801 L 1018.973 454.801 L 1018.973 454.801 Q 1018.523 454.885 1018.175 455.089 L 1018.175 455.089 L 1018.175 455.089 Q 1017.827 455.293 1017.611 455.629 L 1017.611 455.629 L 1017.611 455.629 Q 1017.395 455.965 1017.395 456.469 L 1017.395 456.469 L 1017.395 456.469 Q 1017.395 456.877 1017.545 457.207 L 1017.545 457.207 L 1017.545 457.207 Q 1017.695 457.537 1017.947 457.777 L 1017.947 457.777 L 1017.947 457.777 Q 1018.199 458.017 1018.523 458.149 L 1018.523 458.149 L 1018.523 458.149 Q 1018.847 458.281 1019.195 458.281 L 1019.195 458.281 L 1019.195 458.281 Q 1019.879 458.281 1020.503 457.981 L 1020.503 457.981 L 1020.503 457.981 Q 1021.127 457.681 1021.715 457.177 L 1021.715 457.177 L 1021.715 457.177 Z  M 1033.319 447.337 L 1033.319 448.777 L 1034.243 447.577 L 1034.243 447.577 Q 1034.891 447.397 1035.491 447.385 L 1035.491 447.385 L 1035.491 447.385 Q 1036.091 447.373 1036.667 447.373 L 1036.667 447.373 L 1036.667 447.373 Q 1037.639 447.373 1038.359 447.481 L 1038.359 447.481 L 1038.359 447.481 Q 1039.079 447.589 1039.601 447.751 L 1039.601 447.751 L 1039.601 447.751 Q 1040.123 447.913 1040.459 448.087 L 1040.459 448.087 L 1040.459 448.087 Q 1040.795 448.261 1040.999 448.393 L 1040.999 448.393 L 1041.599 451.957 L 1038.239 452.377 L 1037.651 450.265 L 1037.171 450.193 L 1037.171 450.193 Q 1036.931 450.157 1036.691 450.157 L 1036.691 450.157 L 1036.691 450.157 Q 1035.527 450.157 1034.699 450.583 L 1034.699 450.583 L 1034.699 450.583 Q 1033.871 451.009 1033.319 451.777 L 1033.319 451.777 L 1033.319 460.777 L 1029.515 460.777 L 1029.515 447.577 L 1033.319 447.337 L 1033.319 447.337 Z  M 891.803 460.777 L 887.975 460.777 L 892.235 445.369 L 892.667 442.777 L 897.203 442.537 L 902.375 460.777 L 898.367 460.777 L 897.119 455.653 L 893.015 455.653 L 891.803 460.777 L 891.803 460.777 Z  M 895.547 448.897 L 895.091 444.805 L 894.623 448.897 L 893.723 453.025 L 896.411 453.025 L 895.547 448.897 L 895.547 448.897 Z  M 912.599 460.777 L 908.603 460.777 L 908.603 445.513 L 903.767 445.513 L 903.767 442.777 L 917.375 442.777 L 917.375 445.513 L 912.599 445.513 L 912.599 460.777 L 912.599 460.777 Z  M 931.787 456.697 L 933.215 459.181 L 933.215 459.181 Q 931.991 460.153 930.653 460.567 L 930.653 460.567 L 930.653 460.567 Q 929.315 460.981 927.743 460.981 L 927.743 460.981 L 927.743 460.981 Q 925.883 460.981 924.407 460.231 L 924.407 460.231 L 924.407 460.231 Q 922.931 459.481 921.899 458.197 L 921.899 458.197 L 921.899 458.197 Q 920.867 456.913 920.321 455.197 L 920.321 455.197 L 920.321 455.197 Q 919.775 453.481 919.775 451.549 L 919.775 451.549 L 919.775 451.549 Q 919.775 450.337 919.979 449.203 L 919.979 449.203 L 919.979 449.203 Q 920.183 448.069 920.603 447.067 L 920.603 447.067 L 920.603 447.067 Q 921.023 446.065 921.671 445.243 L 921.671 445.243 L 921.671 445.243 Q 922.319 444.421 923.213 443.827 L 923.213 443.827 L 923.213 443.827 Q 924.107 443.233 925.247 442.903 L 925.247 442.903 L 925.247 442.903 Q 926.387 442.573 927.791 442.573 L 927.791 442.573 L 927.791 442.573 Q 929.351 442.573 930.755 443.101 L 930.755 443.101 L 930.755 443.101 Q 932.159 443.629 933.215 444.649 L 933.215 444.649 L 931.439 446.857 L 931.439 446.857 Q 931.043 446.593 930.605 446.353 L 930.605 446.353 L 930.605 446.353 Q 930.167 446.113 929.723 445.933 L 929.723 445.933 L 929.723 445.933 Q 929.279 445.753 928.835 445.645 L 928.835 445.645 L 928.835 445.645 Q 928.391 445.537 927.983 445.537 L 927.983 445.537 L 927.983 445.537 Q 926.843 445.537 926.075 446.005 L 926.075 446.005 L 926.075 446.005 Q 925.307 446.473 924.839 447.283 L 924.839 447.283 L 924.839 447.283 Q 924.371 448.093 924.173 449.185 L 924.173 449.185 L 924.173 449.185 Q 923.975 450.277 923.975 451.513 L 923.975 451.513 L 923.975 451.513 Q 923.975 452.245 924.077 453.007 L 924.077 453.007 L 924.077 453.007 Q 924.179 453.769 924.389 454.489 L 924.389 454.489 L 924.389 454.489 Q 924.599 455.209 924.929 455.845 L 924.929 455.845 L 924.929 455.845 Q 925.259 456.481 925.709 456.955 L 925.709 456.955 L 925.709 456.955 Q 926.159 457.429 926.735 457.705 L 926.735 457.705 L 926.735 457.705 Q 927.311 457.981 928.031 457.981 L 928.031 457.981 L 928.031 457.981 Q 928.439 457.981 928.835 457.915 L 928.835 457.915 L 928.835 457.915 Q 929.231 457.849 929.669 457.699 L 929.669 457.699 L 929.669 457.699 Q 930.107 457.549 930.623 457.303 L 930.623 457.303 L 930.623 457.303 Q 931.139 457.057 931.787 456.697 L 931.787 456.697 L 931.787 456.697 Z  M 948.575 460.177 L 948.575 462.937 L 948.575 462.937 Q 947.423 462.937 946.571 462.811 L 946.571 462.811 L 946.571 462.811 Q 945.719 462.685 945.029 462.325 L 945.029 462.325 L 945.029 462.325 Q 944.339 461.965 943.757 461.305 L 943.757 461.305 L 943.757 461.305 Q 943.175 460.645 942.575 459.577 L 942.575 459.577 L 942.575 460.909 L 942.575 460.909 Q 941.963 460.981 941.399 460.981 L 941.399 460.981 L 941.399 460.981 Q 939.755 460.981 938.519 460.219 L 938.519 460.219 L 938.519 460.219 Q 937.283 459.457 936.455 458.179 L 936.455 458.179 L 936.455 458.179 Q 935.627 456.901 935.207 455.239 L 935.207 455.239 L 935.207 455.239 Q 934.787 453.577 934.787 451.777 L 934.787 451.777 L 934.787 451.777 Q 934.787 449.893 935.231 448.213 L 935.231 448.213 L 935.231 448.213 Q 935.675 446.533 936.569 445.285 L 936.569 445.285 L 936.569 445.285 Q 937.463 444.037 938.813 443.305 L 938.813 443.305 L 938.813 443.305 Q 940.163 442.573 941.975 442.573 L 941.975 442.573 L 941.975 442.573 Q 943.739 442.573 945.077 443.245 L 945.077 443.245 L 945.077 443.245 Q 946.415 443.917 947.321 445.099 L 947.321 445.099 L 947.321 445.099 Q 948.227 446.281 948.689 447.901 L 948.689 447.901 L 948.689 447.901 Q 949.151 449.521 949.151 451.417 L 949.151 451.417 L 949.151 451.417 Q 949.151 452.521 948.959 453.667 L 948.959 453.667 L 948.959 453.667 Q 948.767 454.813 948.383 455.857 L 948.383 455.857 L 948.383 455.857 Q 947.999 456.901 947.417 457.783 L 947.417 457.783 L 947.417 457.783 Q 946.835 458.665 946.055 459.253 L 946.055 459.253 L 946.055 459.253 Q 946.271 459.613 946.571 459.805 L 946.571 459.805 L 946.571 459.805 Q 946.871 459.997 947.207 460.075 L 947.207 460.075 L 947.207 460.075 Q 947.543 460.153 947.897 460.165 L 947.897 460.165 L 947.897 460.165 Q 948.251 460.177 948.575 460.177 L 948.575 460.177 L 948.575 460.177 Z  M 938.891 451.381 L 938.891 451.381 L 938.891 451.381 Q 938.903 452.101 938.927 452.863 L 938.927 452.863 L 938.927 452.863 Q 938.951 453.625 939.041 454.351 L 939.041 454.351 L 939.041 454.351 Q 939.131 455.077 939.305 455.725 L 939.305 455.725 L 939.305 455.725 Q 939.479 456.373 939.791 456.859 L 939.791 456.859 L 939.791 456.859 Q 940.103 457.345 940.583 457.627 L 940.583 457.627 L 940.583 457.627 Q 941.063 457.909 941.759 457.909 L 941.759 457.909 L 941.759 457.909 Q 941.615 457.645 941.387 457.201 L 941.387 457.201 L 940.931 456.289 L 940.931 456.289 Q 940.703 455.821 940.499 455.407 L 940.499 455.407 L 940.499 455.407 Q 940.295 454.993 940.175 454.777 L 940.175 454.777 L 942.899 453.565 L 944.699 457.177 L 944.699 454.777 L 944.699 454.777 Q 944.819 454.201 944.933 453.469 L 944.933 453.469 L 944.933 453.469 Q 945.047 452.737 945.047 451.765 L 945.047 451.765 L 945.047 451.765 Q 945.047 451.021 944.987 450.265 L 944.987 450.265 L 944.987 450.265 Q 944.927 449.509 944.789 448.807 L 944.789 448.807 L 944.789 448.807 Q 944.651 448.105 944.417 447.487 L 944.417 447.487 L 944.417 447.487 Q 944.183 446.869 943.835 446.413 L 943.835 446.413 L 943.835 446.413 Q 943.487 445.957 943.007 445.693 L 943.007 445.693 L 943.007 445.693 Q 942.527 445.429 941.903 445.429 L 941.903 445.429 L 941.903 445.429 Q 941.315 445.429 940.859 445.687 L 940.859 445.687 L 940.859 445.687 Q 940.403 445.945 940.067 446.389 L 940.067 446.389 L 940.067 446.389 Q 939.731 446.833 939.509 447.427 L 939.509 447.427 L 939.509 447.427 Q 939.287 448.021 939.149 448.681 L 939.149 448.681 L 939.149 448.681 Q 939.011 449.341 938.951 450.037 L 938.951 450.037 L 938.951 450.037 Q 938.891 450.733 938.891 451.381 Z " fill="rgb(255,255,255)"/><path d=" M 889 436 L 953.71 436 L 985.372 416 L 1017.034 436 L 1039 436" fill="none" vector-effect="non-scaling-stroke" stroke-width="3" stroke="rgb(255,255,255)" stroke-linejoin="miter" stroke-linecap="square" stroke-miterlimit="3"/><line x1="889" y1="467" x2="1039" y2="466.777" vector-effect="non-scaling-stroke" stroke-width="3" stroke="rgb(255,255,255)" stroke-linejoin="miter" stroke-linecap="square" stroke-miterlimit="3"/></g></svg>